<svg width="512" height="512" viewBox="0 0 512 512" fill="none" xmlns="http://www.w3.org/2000/svg">
<g clip-path="url(#clip0_3659_267)">
<path d="M214.438 197.562C223.073 202.819 227.078 212.052 231 221C231 221.66 231 222.32 231 223C231.66 223 232.32 223 233 223C233.351 221.742 233.701 220.484 234.063 219.187C237.195 209.906 242.374 201.913 251 197C257.27 194.91 265.297 194.768 271.375 197.562C279.614 202.565 285.018 209.842 288 219C289.172 227.848 288.499 233.483 284 241C284.969 241.345 285.939 241.689 286.938 242.044C296.943 245.663 306.47 249.91 316 254.625C317.443 255.331 318.885 256.037 320.328 256.742C327.917 260.457 335.471 264.236 343.01 268.051C350.733 271.955 358.448 275.791 366.438 279.125C367.081 279.396 367.725 279.668 368.389 279.947C376.408 283.176 384.696 284.33 393.234 285.262C395.253 285.492 397.271 285.723 399.289 285.954C400.343 286.073 401.396 286.192 402.482 286.315C421.042 288.429 439.54 290.826 458 293.687C458.946 293.832 459.892 293.976 460.866 294.124C488.531 298.361 488.531 298.361 498.75 308.812C503.483 315.518 505.633 322.507 506.922 330.539C507.072 331.423 507.221 332.307 507.376 333.218C507.687 335.077 507.993 336.938 508.293 338.799C508.746 341.6 509.225 344.395 509.707 347.191C514.301 374.579 514.301 374.579 509.938 382.625C506.558 387.045 502.299 390.234 497 392C495.008 392.083 493.013 392.107 491.02 392.098C489.856 392.094 488.693 392.091 487.494 392.088C486.279 392.079 485.064 392.071 483.813 392.062C482.586 392.058 481.36 392.053 480.096 392.049C477.064 392.037 474.032 392.021 471 392C470.974 390.851 470.949 389.703 470.922 388.519C470.446 373.748 467.856 362.174 459 350C458.573 349.366 458.147 348.732 457.707 348.078C450.64 338.598 437.445 331.835 426 330C409.301 328.449 395.754 330.995 382 341C381.366 341.427 380.732 341.853 380.078 342.293C370.2 349.656 364.581 362.384 362 374C361.67 379.94 361.34 385.88 361 392C296.98 392 232.96 392 167 392C166.67 386.06 166.34 380.12 166 374C163.817 364.681 160.609 357.711 155 350C154.573 349.366 154.147 348.732 153.707 348.078C146.64 338.598 133.445 331.835 122 330C105.301 328.449 91.7544 330.995 78.0001 341C77.3659 341.427 76.7317 341.853 76.0782 342.293C66.4003 349.507 60.2063 362.444 58.0001 374C57.7003 377.137 57.5442 380.274 57.4063 383.422C57.3654 384.25 57.3245 385.078 57.2823 385.931C57.1831 387.954 57.0909 389.977 57.0001 392C51.3076 392.099 45.6156 392.172 39.9225 392.22C37.9884 392.24 36.0545 392.267 34.1207 392.302C31.3303 392.351 28.5408 392.373 25.7501 392.391C24.4668 392.422 24.4668 392.422 23.1576 392.453C16.3678 392.456 11.1578 390.725 5.97666 386.254C5.53064 385.696 5.08463 385.138 4.6251 384.562C4.16361 384.007 3.70213 383.451 3.22666 382.879C0.0206294 377.968 -0.343055 373.297 -0.406155 367.551C-0.417555 366.738 -0.428955 365.925 -0.4407 365.088C-0.459545 363.371 -0.472646 361.654 -0.480373 359.937C-0.499719 357.337 -0.56177 354.741 -0.624905 352.143C-0.747654 342.506 -0.294888 335.773 6.0001 328C6.61498 327.002 7.22986 326.004 7.86338 324.977C8.84009 323.392 9.81931 321.808 10.8009 320.227C13.1663 315.835 13.1633 311.76 13.3751 306.812C13.9407 297.138 15.5881 289.671 23.0001 283C27.4818 280.044 30.6805 279.409 36.0001 280C49.5138 283.333 49.5138 283.333 52.0001 287C52.791 289.457 53.4346 291.805 54.0001 294.312C54.2544 295.372 54.2544 295.372 54.5138 296.453C55.3405 299.941 56.0992 303.437 56.7813 306.957C58.6538 316.512 61.0895 322.188 69.0001 328C75.0414 330.899 81.8977 331.14 88.3478 329.348C94.033 326.795 98.3117 322.723 100.895 317.027C103.14 310.218 104.255 302.997 105.555 295.956C105.714 295.117 105.872 294.278 106.035 293.414C106.173 292.661 106.311 291.907 106.453 291.131C107.243 288.052 108.021 285.629 110.75 283.875C117.226 281.357 123.759 279.829 130.578 278.57C135.636 277.569 138.837 276.028 143 273C143.66 273 144.32 273 145 273C145.688 271.677 146.347 270.34 147 269C147.804 267.515 147.804 267.515 148.625 266C151.22 259.959 150.844 252.23 149 246C159.26 241.588 167.803 239.623 179 240C178.517 239.157 178.033 238.314 177.535 237.445C174.476 230.58 174.803 222.693 177.102 215.602C180.937 207.458 186.252 200.427 194.633 196.66C201.03 194.876 208.312 194.846 214.438 197.562ZM196 218C195.402 218.619 194.804 219.237 194.188 219.875C192.385 223.101 192.483 225.381 193 229C195.679 232.181 197.559 232.909 201.625 233.75C206.737 234.171 211.876 234.085 217 234C216.389 229.592 214.745 226.267 212.625 222.375C212.019 221.248 211.413 220.122 210.789 218.961C209.324 216.535 208.196 214.75 206 213C200.986 211.944 199.154 214.348 196 218ZM254.336 216.879C249.072 224.925 249.072 224.925 247 234C258.961 234.745 258.961 234.745 269.75 230.629C271.282 228.903 271.282 228.903 271.5 225.75C270.879 221.094 269.177 218.392 266 215C260.978 211.652 258.06 211.933 254.336 216.879ZM208 251C208 260.57 208 270.14 208 280C204.37 280 200.74 280 197 280C178.213 282.49 147.585 292.415 134 306C134 310.62 134 315.24 134 320C158.42 320 182.84 320 208 320C208 338.48 208 356.96 208 376C213.28 376 218.56 376 224 376C224 335.08 224 294.16 224 252C218.052 250.64 218.052 250.64 208 251ZM240 252C240 292.92 240 333.84 240 376C245.28 376 250.56 376 256 376C256 357.52 256 339.04 256 320C285.04 320 314.08 320 344 320C341.165 317.874 338.992 316.378 335.902 314.871C335.111 314.481 334.32 314.091 333.505 313.69C332.658 313.277 331.81 312.863 330.938 312.437C324.143 309.081 317.385 305.671 310.688 302.125C309.927 301.723 309.167 301.32 308.383 300.905C306.788 300.061 305.192 299.216 303.597 298.371C298.677 295.773 293.745 293.199 288.813 290.625C287.856 290.125 286.9 289.625 285.915 289.11C275.215 283.526 268.404 280 256 280C256 270.43 256 260.86 256 251C245.948 250.64 245.948 250.64 240 252Z" fill="white"/>
<path d="M438.418 349.508C447.221 355.848 453.837 364.234 456 375C457.338 387.417 456.275 398.389 448.813 408.75C442 416.835 433.695 423.063 422.929 424.223C410.018 425.119 399.25 423.553 389.067 414.973C380.549 406.841 375.998 398.192 375.529 386.365C375.374 373.85 378.192 364.227 387 355C400.78 341.845 422.105 339.335 438.418 349.508Z" fill="white"/>
<path d="M134.418 349.508C143.221 355.848 149.837 364.234 152 375C153.338 387.417 152.275 398.389 144.813 408.75C138 416.835 129.695 423.063 118.929 424.223C106.018 425.119 95.2497 423.553 85.0666 414.973C76.5485 406.841 71.9977 398.192 71.5295 386.365C71.3744 373.85 74.1916 364.227 83.0002 355C96.7803 341.845 118.105 339.335 134.418 349.508Z" fill="white"/>
<path d="M80 195.5C80.66 195.49 81.32 195.479 82 195.469C84.8981 196.239 86.0697 197.736 88 200C88.8496 202.499 88.8496 202.499 89.3438 205.289C89.5384 206.314 89.733 207.339 89.9336 208.395C90.1205 209.461 90.3074 210.527 90.5 211.625C92.8874 226.923 92.8874 226.923 101.988 238.766C109.331 243.271 117.376 244.916 125.755 246.43C130.261 247.314 133.225 248.047 136 252C136.531 254 136.531 254 136.5 256C136.515 256.99 136.515 256.99 136.531 258C135.706 261.107 134.617 262.087 132 264C128.681 265.092 125.297 265.753 121.875 266.438C107.819 269.266 107.819 269.266 97.0117 278.121C92.5329 286.439 91.0692 295.922 89.5701 305.145C88.903 308.909 88.4087 311.441 86.125 314.562C83.8453 316.105 82.7247 316.543 80 316.5C79.01 316.515 79.01 316.515 78 316.531C75.1019 315.761 73.9303 314.264 72 312C71.1504 309.501 71.1504 309.501 70.6562 306.711C70.4616 305.686 70.267 304.661 70.0664 303.605C69.8795 302.539 69.6926 301.473 69.5 300.375C67.1126 285.077 67.1126 285.077 58.0117 273.234C50.6693 268.729 42.6243 267.084 34.2449 265.57C29.7395 264.686 26.7755 263.953 24 260C23.4688 258 23.4688 258 23.5 256C23.4897 255.34 23.4794 254.68 23.4688 254C24.2941 250.893 25.3832 249.913 28 248C31.3185 246.908 34.7027 246.247 38.125 245.562C52.1815 242.734 52.1815 242.734 62.9883 233.879C67.4671 225.561 68.9308 216.078 70.4299 206.855C71.097 203.091 71.5913 200.559 73.875 197.438C76.1547 195.895 77.2753 195.457 80 195.5ZM79 240C77.6929 241.826 77.6929 241.826 76.375 244.125C73.3012 248.941 69.7602 251.919 65 255C66.1507 258.452 66.8206 258.766 69.75 260.688C73.6391 263.454 75.7537 266.281 77.9922 270.461C78.3248 270.969 78.6573 271.477 79 272C79.66 272 80.32 272 81 272C82.3071 270.174 82.3071 270.174 83.625 267.875C86.6988 263.059 90.2398 260.081 95 257C93.8493 253.548 93.1794 253.234 90.25 251.312C86.3609 248.546 84.2463 245.719 82.0078 241.539C81.6752 241.031 81.3427 240.523 81 240C80.34 240 79.68 240 79 240Z" fill="white"/>
<path d="M399 168C402.236 169.743 402.824 170.472 404 174C404.128 176.674 404.044 179.321 404 182C404.743 181.897 405.485 181.794 406.25 181.688C409 182 409 182 411.313 184.125C413.306 187.521 413.646 189.128 413 193C410.849 196.338 409.796 197.735 406 199C404.448 199.147 402.89 199.247 401.332 199.317C400.44 199.358 399.547 199.4 398.627 199.443C397.698 199.483 396.77 199.522 395.813 199.563C394.872 199.606 393.932 199.649 392.963 199.693C390.642 199.799 388.321 199.902 386 200C385.958 202 385.959 204.001 386 206C387.786 207.786 390.582 207.215 393 207.313C399.954 207.831 405.915 208.707 410.848 213.973C416.528 221.371 416.832 227.855 416 237C414.335 241.766 411.865 244.373 407.813 247.313C404.14 250.822 404.063 253.547 403.617 258.477C403 261 403 261 401.196 262.809C397.762 264.672 394.803 264.678 391 264C388.5 262.5 388.5 262.5 387 260C386.684 257.242 386.814 254.794 387 252C386.409 252.023 385.817 252.047 385.207 252.07C376.925 252.26 376.925 252.26 373 250C370.509 246.263 370.542 244.427 371 240C372.36 237.32 372.36 237.32 375 235C378.535 234.257 382.023 234.255 385.625 234.25C387.534 234.217 389.443 234.181 391.352 234.141C392.618 234.133 392.618 234.133 393.909 234.126C396.06 234.134 396.06 234.134 398 233C398.043 231.001 398.041 229 398 227C396.194 225.193 393.316 225.742 390.875 225.625C383.242 225.082 377.576 223.576 372 218C367.62 212.346 367.338 206.327 367.547 199.352C368.377 193.214 371.119 189.787 375.5 185.625C379.534 183.003 382.148 182 387 182C386.954 181.325 386.907 180.649 386.86 179.953C386.568 172.756 386.568 172.756 388.5 169.375C392.042 167.427 395.045 167.318 399 168Z" fill="white"/>
<path d="M239 88.0001C242.236 89.7426 242.824 90.472 244 94.0001C244.128 96.6741 244.044 99.3211 244 102C244.743 101.897 245.485 101.794 246.25 101.688C249 102 249 102 251.313 104.125C253.306 107.521 253.646 109.128 253 113C250.849 116.338 249.796 117.735 246 119C244.448 119.147 242.89 119.247 241.332 119.317C240.44 119.358 239.547 119.4 238.627 119.443C237.698 119.483 236.77 119.522 235.813 119.563C234.872 119.606 233.932 119.649 232.963 119.693C230.642 119.799 228.321 119.902 226 120C225.958 122 225.959 124.001 226 126C227.786 127.786 230.582 127.215 233 127.313C239.954 127.831 245.915 128.707 250.848 133.973C256.528 141.371 256.832 147.855 256 157C254.335 161.766 251.865 164.373 247.813 167.313C244.14 170.822 244.063 173.547 243.617 178.477C243 181 243 181 241.196 182.809C237.762 184.672 234.803 184.678 231 184C228.5 182.5 228.5 182.5 227 180C226.684 177.242 226.814 174.794 227 172C226.409 172.023 225.817 172.047 225.207 172.07C216.925 172.26 216.925 172.26 213 170C210.509 166.263 210.542 164.427 211 160C212.36 157.32 212.36 157.32 215 155C218.535 154.257 222.023 154.255 225.625 154.25C227.534 154.217 229.443 154.181 231.352 154.141C232.618 154.133 232.618 154.133 233.909 154.126C236.06 154.134 236.06 154.134 238 153C238.043 151.001 238.041 149 238 147C236.194 145.193 233.316 145.742 230.875 145.625C223.242 145.082 217.576 143.576 212 138C207.62 132.346 207.338 126.327 207.547 119.352C208.377 113.214 211.119 109.787 215.5 105.625C219.534 103.003 222.148 102 227 102C226.954 101.325 226.907 100.649 226.86 99.9532C226.568 92.7558 226.568 92.7558 228.5 89.3751C232.042 87.4274 235.045 87.318 239 88.0001Z" fill="white"/>
<path d="M140 132C142.597 134.085 143.858 135.286 144.518 138.594C144.522 139.553 144.527 140.512 144.531 141.5C144.537 142.552 144.542 143.604 144.547 144.687C144.532 145.781 144.516 146.874 144.5 148C144.516 149.093 144.531 150.186 144.547 151.312C144.542 152.364 144.537 153.416 144.531 154.5C144.527 155.459 144.522 156.418 144.518 157.406C143.858 160.713 142.589 161.909 140 164C137.258 164.728 134.772 164.569 132 164C128.752 161.668 127.685 159.847 127 156C126.854 153.381 126.769 150.806 126.75 148.187C126.729 147.501 126.709 146.815 126.688 146.107C126.649 141.027 127.622 137.507 130 133C133.13 131.435 136.611 131.303 140 132Z" fill="white"/>
<path d="M328 155.5C328.66 155.49 329.32 155.479 330 155.469C332.918 156.244 334.093 157.691 336 160C336.518 162.594 336.518 162.594 336.531 165.5C336.536 166.552 336.542 167.604 336.547 168.688C336.531 169.781 336.516 170.874 336.5 172C336.515 173.093 336.531 174.186 336.547 175.312C336.542 176.364 336.537 177.416 336.531 178.5C336.527 179.459 336.522 180.418 336.518 181.406C335.858 184.713 334.589 185.909 332 188C330 188.531 330 188.531 328 188.5C327.01 188.515 327.01 188.515 326 188.531C323.082 187.756 321.907 186.309 320 184C319.482 181.406 319.482 181.406 319.469 178.5C319.464 177.448 319.458 176.396 319.453 175.312C319.469 174.219 319.484 173.126 319.5 172C319.485 170.907 319.469 169.814 319.453 168.688C319.461 167.11 319.461 167.11 319.469 165.5C319.473 164.541 319.478 163.582 319.482 162.594C320.397 158.012 323.326 155.427 328 155.5Z" fill="white"/>
<path d="M332 204C334.5 205.5 334.5 205.5 336 208C336.791 212.021 336.622 214.964 334.5 218.5C330.964 220.622 328.021 220.791 324 220C321.5 218.5 321.5 218.5 320 216C319.209 211.979 319.378 209.036 321.5 205.5C325.036 203.378 327.979 203.209 332 204Z" fill="white"/>
<path d="M140 180C142.5 181.5 142.5 181.5 144 184C144.791 188.021 144.622 190.964 142.5 194.5C138.964 196.622 136.021 196.791 132 196C129.5 194.5 129.5 194.5 128 192C127.209 187.979 127.378 185.036 129.5 181.5C133.036 179.378 135.979 179.209 140 180Z" fill="white"/>
</g>
<defs>
<clipPath id="clip0_3659_267">
<rect width="512" height="512" fill="white"/>
</clipPath>
</defs>
</svg>
