<svg width="512" height="512" viewBox="0 0 512 512" fill="none" xmlns="http://www.w3.org/2000/svg">
<path d="M243.201 73.7412C243.978 73.7377 244.754 73.7342 245.555 73.7306C248.098 73.7219 250.641 73.7276 253.184 73.7344C254.967 73.7331 256.75 73.7311 258.533 73.7286C262.261 73.7257 265.988 73.7299 269.716 73.7393C274.475 73.7507 279.233 73.7441 283.992 73.7322C287.672 73.7249 291.351 73.7272 295.031 73.7324C296.785 73.7337 298.538 73.7321 300.292 73.7274C323.705 73.6786 323.705 73.6786 332.113 81.8672C336.552 86.885 337.785 92.2153 337.613 98.7735C335.639 109.163 328.581 119.206 323 128C324.196 128.516 325.393 129.031 326.625 129.563C331.159 131.818 334.189 134.808 337 139C338.603 143.808 339.084 149.277 337.176 154.07C336.192 155.76 335.099 157.384 334 159C333.316 160.325 332.646 161.656 332 163C332.641 163.569 333.281 164.137 333.941 164.723C336.642 167.133 339.321 169.566 342 172C342.618 172.538 343.235 173.075 343.871 173.629C363.593 191.743 373.767 222.402 375.126 248.412C375.767 268.875 373.826 288.194 361 305C360.45 305.739 359.899 306.477 359.332 307.238C349.849 318.946 334.83 326.881 320 329C320.083 329.825 320.165 330.65 320.25 331.5C319.735 338.71 315.81 344.078 310.676 348.98C303.046 354.739 293.758 358.299 285 362C300.692 364.927 312.953 365.496 328 360C329.272 359.568 330.544 359.137 331.816 358.707C341.731 355.182 351.376 350.934 361.041 346.783C362.113 346.323 363.185 345.864 364.289 345.391C365.245 344.978 366.201 344.566 367.186 344.142C375.39 340.813 383.812 339.244 392.547 341.723C396.692 343.647 399.787 345.927 402 350C403.661 356.187 403.296 361.156 400.352 366.844C392.863 378.791 380.566 385.054 368.5 391.625C367.872 391.969 367.244 392.312 366.597 392.667C349.308 402.119 331.911 411.232 313.625 418.625C312.138 419.228 312.138 419.228 310.62 419.843C299.624 424.15 289.462 426.526 277.625 426.375C276.475 426.368 275.326 426.361 274.141 426.353C260.349 426.14 246.687 424.603 233 423C230.317 422.69 227.635 422.38 224.951 422.074C222.887 421.836 220.824 421.584 218.762 421.332C206.474 420.247 194.475 421.33 184.441 429.227C179.224 433.608 174.253 437.914 171 444C171.517 444.58 172.034 445.16 172.566 445.758C173.225 446.539 173.884 447.32 174.563 448.125C175.224 448.891 175.885 449.656 176.566 450.445C178 453 178 453 178.031 455.996C176.724 459.803 174.995 461.343 171.938 463.938C171.439 464.369 170.94 464.8 170.426 465.244C168.961 466.508 167.481 467.754 166 469C164.643 470.185 163.289 471.372 161.938 472.563C161.307 473.11 160.677 473.658 160.027 474.223C157.665 476.294 155.332 478.395 153 480.5C149.272 483.861 145.541 487.216 141.738 490.492C140.257 491.777 138.812 493.103 137.375 494.438C135 496 135 496 132.125 496.688C127.347 495.636 125.128 492.609 122 489C121.167 488.062 121.167 488.062 120.316 487.105C119.165 485.799 118.02 484.487 116.883 483.168C114.784 480.752 112.646 478.375 110.5 476C107.236 472.383 104.012 468.736 100.813 465.063C98.7279 462.69 96.6158 460.344 94.5 458C91.2361 454.383 88.0121 450.736 84.8125 447.063C81.9674 443.825 79.0715 440.633 76.1836 437.434C74.2916 435.325 72.421 433.201 70.5625 431.063C67.7518 427.834 64.8842 424.663 62 421.5C47.9909 406.124 47.9909 406.124 48.0274 401.656C49.1922 397.278 51.186 395.28 54.5625 392.5C55.3812 391.79 55.3812 391.79 56.2164 391.065C57.799 389.695 59.3983 388.347 61 387C62.3775 385.794 63.7529 384.587 65.125 383.375C66.057 382.567 66.057 382.567 67.0079 381.742C69.3603 379.685 71.6804 377.594 74 375.5C90.0444 361.035 90.0444 361.035 94.375 360.875C99.185 362.368 101.145 364.994 104 369C107.657 367.475 109.85 365.293 112.563 362.438C117.729 357.173 123.207 352.555 129 348C130.531 346.761 130.531 346.761 132.094 345.496C149.795 331.318 169.818 321.572 193 323C196.037 323.443 199.04 323.984 202.055 324.555C206.704 325.258 211.311 325.166 216 325C215.189 324.611 214.378 324.221 213.543 323.82C196.706 315.313 186.036 302.977 180 285C174.289 266.538 175.299 244.613 180 226C180.166 225.34 180.333 224.681 180.504 224.001C185.511 204.781 195.258 187.314 209 173C209.887 172.072 210.774 171.144 211.688 170.188C213.5 168.473 215.323 166.889 217.25 165.313C220.017 163.296 220.017 163.296 221 161C220.01 160.67 219.02 160.34 218 160C213.981 154.833 213.311 150.442 213.555 143.941C214.357 138.642 216.537 134.897 220.785 131.625C223.636 129.882 225.635 129 229 129C228.718 128.497 228.436 127.993 228.146 127.475C226.845 125.151 225.548 122.825 224.25 120.5C223.807 119.709 223.363 118.917 222.906 118.102C221.591 115.742 220.292 113.373 219 111C218.604 110.289 218.209 109.578 217.801 108.845C214.435 102.546 213.877 97.1067 215 90C217.438 83.7623 220.86 78.9471 227 76C232.488 74.3943 237.473 73.7088 243.201 73.7412ZM228.688 90.125C226.474 93.8967 226.168 96.7867 227 101C228.927 105.297 231.341 109.247 233.813 113.25C234.455 114.325 235.098 115.4 235.76 116.508C237.476 119.361 239.2 122.199 241 125C241.605 126.047 241.605 126.047 242.222 127.115C244.735 129.78 246.455 129.573 250.073 129.692C251.325 129.74 252.577 129.788 253.867 129.838C255.237 129.867 256.607 129.894 257.977 129.918C258.669 129.933 259.361 129.948 260.074 129.964C263.741 130.041 267.408 130.093 271.076 130.126C274.101 130.157 277.119 130.233 280.142 130.351C295.787 131.679 295.787 131.679 310.203 127.585C313.438 124.185 314.986 120.428 316.304 115.982C317.301 113.143 318.859 110.793 320.519 108.298C323.363 103.994 325.613 100.123 325.313 94.875C324.591 91.7693 323.918 90.9138 321.625 88.5C317.166 85.9521 313.392 85.8517 308.395 85.8548C307.622 85.8514 306.85 85.8481 306.054 85.8446C303.497 85.8351 300.94 85.8331 298.383 85.8321C296.606 85.8289 294.828 85.8255 293.051 85.822C289.323 85.816 285.596 85.8141 281.869 85.8147C277.095 85.8148 272.321 85.8012 267.547 85.784C263.876 85.7728 260.204 85.7708 256.532 85.7713C254.772 85.7702 253.012 85.7657 251.253 85.758C248.79 85.7482 246.327 85.7511 243.864 85.7571C243.138 85.7515 242.413 85.7459 241.666 85.7401C236.284 85.7735 232.684 86.4526 228.688 90.125ZM227.279 142.336C225.307 144.902 225.609 146.869 226 150C227.227 151.736 227.227 151.736 229 153C232.006 153.302 234.806 153.42 237.814 153.404C238.715 153.411 239.616 153.418 240.545 153.425C243.529 153.443 246.512 153.439 249.496 153.434C251.567 153.438 253.639 153.443 255.71 153.45C260.053 153.458 264.397 153.456 268.741 153.446C274.311 153.435 279.88 153.455 285.45 153.484C289.728 153.502 294.006 153.502 298.284 153.496C300.338 153.496 302.392 153.502 304.446 153.515C307.316 153.53 310.186 153.519 313.056 153.502C313.907 153.511 314.757 153.521 315.634 153.531C319.458 153.483 321.391 153.436 324.567 151.164C326.305 148.998 326.305 148.998 325.875 145.875C325.217 142.903 325.217 142.903 323 141C320.033 140.796 317.16 140.717 314.192 140.725C313.279 140.72 312.367 140.715 311.427 140.71C308.401 140.696 305.374 140.697 302.348 140.699C300.25 140.695 298.153 140.691 296.055 140.686C291.654 140.679 287.254 140.679 282.853 140.684C277.205 140.69 271.558 140.673 265.911 140.65C261.578 140.635 257.245 140.634 252.912 140.638C250.829 140.637 248.747 140.632 246.665 140.622C243.755 140.609 240.847 140.616 237.938 140.628C236.64 140.616 236.64 140.616 235.316 140.605C231.013 140.511 231.013 140.511 227.279 142.336ZM229 171C228.425 171.452 227.849 171.903 227.256 172.369C223.652 175.357 220.332 178.714 217 182C215.9 183.081 215.9 183.081 214.777 184.184C194.83 205.162 188.393 234.636 188.723 262.664C189.168 277.604 193.726 291.709 204 302.813C215.037 313.123 228.569 316.961 243 320C244.213 320.295 245.426 320.59 246.676 320.895C253.084 321.6 259.321 318.799 265.313 316.813C266.567 316.412 267.822 316.012 269.115 315.6C274.799 313.772 280.422 311.858 286 309.731C293.324 307.037 301.243 306.339 308.5 309.688C311.169 311.225 312.37 312.437 314.438 314.875C316.936 317.433 316.936 317.433 320.813 316.813C335.991 312.269 348.906 303.85 356.754 289.777C367.58 265.648 364.092 237.065 355 213C346.645 193.362 332.407 174.704 313 165C310.715 164.877 308.427 164.82 306.139 164.791C305.433 164.782 304.727 164.772 303.999 164.762C301.656 164.732 299.312 164.71 296.969 164.691C295.766 164.682 295.766 164.682 294.538 164.672C290.286 164.639 286.034 164.614 281.782 164.595C278.275 164.577 274.768 164.543 271.261 164.492C267.018 164.432 262.776 164.401 258.532 164.392C256.922 164.383 255.311 164.365 253.701 164.335C244.086 164.169 236.782 164.679 229 171ZM286.555 321.231C285.145 321.707 283.734 322.183 282.324 322.658C281.598 322.909 280.871 323.159 280.123 323.417C253.813 332.441 223.275 341.939 195.297 335.461C178.962 332.183 162.485 339.372 149 348C140.933 353.543 133.636 360.059 126.477 366.711C123.604 369.366 120.647 371.908 117.656 374.43C115.85 376.142 114.439 377.974 113 380C113.785 380.846 114.57 381.691 115.379 382.563C120.417 387.999 125.442 393.437 130.293 399.043C132.336 401.386 134.417 403.693 136.5 406C139.19 408.981 141.863 411.972 144.5 415C152.984 424.749 152.984 424.749 162 434C162.447 433.553 162.895 433.105 163.356 432.645C164.615 431.385 165.876 430.126 167.137 428.867C168.601 427.4 170.053 425.921 171.5 424.438C172.325 423.633 173.15 422.829 174 422C174.487 421.517 174.975 421.033 175.477 420.535C185.884 410.843 199.076 408.447 212.842 408.882C220.095 409.28 227.317 410.287 234.527 411.139C270.305 416.216 270.305 416.216 305 409C305.856 408.651 306.712 408.301 307.593 407.941C329.768 398.884 351.208 387.749 372 375.875C373.092 375.256 373.092 375.256 374.207 374.625C381.476 370.373 387.519 365.833 391 358C391.047 355.667 391.047 355.667 390 354C385.22 351.61 379.689 352.471 374.754 354.016C371.769 355.198 368.815 356.428 365.88 357.729C363.965 358.578 362.042 359.404 360.115 360.225C357.563 361.312 355.014 362.407 352.467 363.508C324.923 375.358 303.516 377.322 273.755 373.119C270.216 372.62 266.675 372.141 263.133 371.664C260.864 371.353 258.596 371.04 256.328 370.727C255.278 370.584 254.228 370.441 253.146 370.294C248.231 369.593 243.657 368.812 239 367C238.813 363.625 238.813 363.625 239 360C242.708 357.528 244.76 357.739 249.188 357.625C266.925 356.823 290.492 350.433 303.883 338.293C306.552 335.159 307.913 332.765 308.375 328.688C307.908 324.094 306.48 322.886 303 320C302.67 319.67 302.34 319.34 302 319C296.281 318.679 292.026 319.342 286.555 321.231ZM88.8047 378.816C87.8601 379.711 87.8601 379.711 86.8963 380.623C86.2293 381.263 85.5623 381.903 84.875 382.563C83.51 383.855 82.1441 385.147 80.7774 386.438C80.1224 387.058 79.4674 387.678 78.7925 388.316C73.7112 393.089 68.3757 397.565 63 402C64.6162 405.924 67.3134 408.714 70.1875 411.75C71.1895 412.825 72.1908 413.9 73.1915 414.977C73.6763 415.496 74.1611 416.016 74.6607 416.552C76.915 418.989 79.0828 421.5 81.2579 424.008C83.315 426.36 85.406 428.68 87.5 431C90.1705 433.959 92.823 436.929 95.4375 439.938C98.2483 443.166 101.116 446.337 104 449.5C107.453 453.287 110.861 457.105 114.223 460.973C116.294 463.335 118.395 465.668 120.5 468C124.377 472.296 128.205 476.632 132 481C134.814 479.711 136.933 478.337 139.172 476.207C139.75 475.662 140.328 475.118 140.924 474.557C141.527 473.981 142.129 473.406 142.75 472.813C144.003 471.631 145.257 470.45 146.512 469.27C147.113 468.703 147.714 468.137 148.334 467.553C150.37 465.655 152.454 463.818 154.563 462C157.516 459.453 160.285 456.799 163 454C159.205 449.632 155.377 445.296 151.5 441C148.236 437.383 145.012 433.736 141.813 430.063C139.728 427.69 137.616 425.344 135.5 423C132.236 419.383 129.012 415.736 125.813 412.063C123.728 409.69 121.616 407.344 119.5 405C116.239 401.386 113.016 397.742 109.82 394.07C106.942 390.797 104.008 387.574 101.082 384.344C99.3488 382.393 97.6916 380.413 96.0625 378.375C95.0416 377.199 95.0416 377.199 94 376C91.2924 376 90.7417 376.965 88.8047 378.816Z" fill="white"/>
<path d="M400 62C416.602 76.5238 430.42 93.614 441 113C441.344 113.627 441.687 114.254 442.042 114.9C466.314 159.789 469.866 211.345 456 260C452.238 272.242 447.095 283.755 441 295C440.435 296.045 439.871 297.091 439.289 298.168C436.11 303.818 432.594 309.196 428.875 314.5C428.467 315.088 428.059 315.676 427.639 316.282C425.122 319.793 422.609 322.604 419 325C415.812 324.938 415.812 324.938 413 324C411 321 411 321 411.125 318.152C412.142 314.487 413.599 312.501 416 309.563C443.901 274.009 455.185 227.002 450.229 182.455C444.236 136.604 420.271 93.5064 383.623 65.0782C346.29 37.0608 299.26 23.8681 252.791 29.8206C230.583 33.1933 209.719 40.3197 190 51C189.372 51.3388 188.745 51.6775 188.098 52.0264C149.888 72.9766 120.624 110.515 108.07 152.08C103.292 169.065 100.582 185.722 100.625 203.375C100.625 204.11 100.624 204.845 100.624 205.602C100.655 222.959 103.248 239.31 108 256C110.447 253.647 111.978 251.452 113.562 248.438C114.917 245.868 115.936 244.064 118 242C121.5 241.75 121.5 241.75 125 242C127 244 127 244 127.516 246.863C127.335 252.887 123.628 258.082 120.75 263.188C120.163 264.267 119.577 265.347 118.973 266.459C113.542 276.29 113.542 276.29 110 279C105.32 279.681 102.535 278.58 98.5234 276.227C97.5231 275.649 96.5228 275.072 95.4922 274.477C94.4635 273.866 93.4348 273.255 92.375 272.625C90.3206 271.429 88.2659 270.234 86.2109 269.039C84.8543 268.238 84.8543 268.238 83.4702 267.42C81.0683 265.994 81.0683 265.994 78.7368 264.935C77 264 77 264 76 262C75.6875 259.063 75.6875 259.063 76 256C77.625 254.063 77.625 254.063 80 253C84.2221 253 87.1206 254.526 90.707 256.563C91.5125 257.018 92.3179 257.473 93.1477 257.941C93.759 258.291 94.3702 258.64 95 259C94.859 258.382 94.718 257.764 94.5728 257.127C93.9167 254.232 93.2708 251.335 92.625 248.438C92.4033 247.466 92.1816 246.495 91.9531 245.494C88.9621 231.99 87.6139 218.679 87.6875 204.875C87.6893 204.158 87.6911 203.442 87.693 202.703C87.7446 190.603 88.5311 178.866 91 167C91.1663 166.184 91.3326 165.367 91.5039 164.526C100.53 121.626 124.469 82.9942 159 56C159.794 55.3678 159.794 55.3678 160.604 54.7227C230.589 -0.706837 333.248 4.31203 400 62Z" fill="white"/>
<path d="M280 190C282 192 282 192 282.196 194.383C282.172 195.288 282.149 196.193 282.125 197.125C282.107 198.035 282.089 198.945 282.071 199.883C282.047 200.582 282.024 201.28 282 202C283.238 202.093 283.238 202.093 284.5 202.188C292.136 203.96 297.535 208.698 302 215C304.598 219.368 304.991 225.048 304 230C302.137 231.809 302.137 231.809 300 233C296.922 232.925 295.538 232.518 293.313 230.375C292 228 292 228 291.125 224.563C289.808 220.391 288.404 218.707 285 216C279.988 213.494 275.335 213.681 270 215C265.636 217.263 262.951 219.447 261 224C260.588 227.298 260.827 229.479 261.875 232.625C266.908 238.25 275.047 239.288 282.125 240.938C289.968 242.805 295.996 244.892 300.938 251.5C304.337 257.595 304.666 264.795 303.59 271.59C301.449 279.09 297.027 284.032 290.375 287.938C287.089 289.731 285.927 290 282 290C282.052 291.031 282.052 291.031 282.106 292.082C282.133 292.983 282.16 293.884 282.188 294.813C282.24 296.153 282.24 296.153 282.293 297.52C282 300 282 300 280.711 301.832C279 303 279 303 275.438 302.875C272 302 272 302 270 299C269.461 296.34 269.267 293.707 269 291C268.36 290.781 267.719 290.562 267.059 290.336C259.497 287.564 253.637 284.395 249.625 277.188C247.736 272.927 246.789 268.671 247 264C248 261.438 248 261.438 250 260C253.563 259.625 253.563 259.625 257 260C259.342 262.342 259.507 263.636 260.25 266.813C261.735 272.054 263.455 274.064 268 277C273.207 278.736 278.15 278.664 283.313 276.813C287.327 274.105 289.509 271.683 290.875 267C291.017 263.605 290.7 261.935 289 259C284.5 254.37 279.127 253.417 273.063 251.938C263.432 249.541 255.755 247.597 250 239C247.215 232.289 246.86 224.667 249.188 217.75C252.217 210.781 257.253 206.262 264 203C267.5 202.188 267.5 202.188 270 202C269.977 201.385 269.954 200.77 269.93 200.137C269.903 198.924 269.903 198.924 269.875 197.688C269.852 196.887 269.829 196.087 269.805 195.262C270 193 270 193 272 190C275.323 188.892 276.692 189.067 280 190Z" fill="white"/>
<path d="M135.125 447.125C138 448 138 448 140 450C140.357 453.283 140.296 455.375 138.875 458.375C137 460 137 460 134 460.438C131 460 131 460 129.125 458.875C127.445 456.076 127.543 454.202 128 451C130.214 447.68 131.09 446.964 135.125 447.125Z" fill="white"/>
</svg>
