<svg width="512" height="512" viewBox="0 0 512 512" fill="none" xmlns="http://www.w3.org/2000/svg">
<path d="M448.791 87.6278C450.248 87.6184 450.248 87.6184 451.734 87.6089C452.781 87.6181 453.828 87.6273 454.907 87.6368C455.983 87.6363 457.059 87.6358 458.168 87.6353C460.444 87.6376 462.721 87.6474 464.997 87.6639C468.487 87.6875 471.975 87.6845 475.465 87.6778C477.675 87.6834 479.884 87.6905 482.094 87.6993C483.664 87.6979 483.664 87.6979 485.267 87.6965C486.723 87.7108 486.723 87.7108 488.209 87.7254C489.492 87.7323 489.492 87.7323 490.8 87.7394C493 88.0001 493 88.0001 496 90.0001C496.378 91.8031 496.378 91.8031 496.381 94.0328C496.389 94.8814 496.398 95.73 496.406 96.6043C496.4 97.5419 496.394 98.4796 496.388 99.4456C496.396 100.933 496.396 100.933 496.404 102.451C496.419 105.796 496.412 109.141 496.404 112.486C496.41 114.876 496.417 117.265 496.425 119.655C496.441 125.484 496.443 131.313 496.438 137.143C496.434 141.88 496.435 146.616 496.441 151.353C496.441 152.027 496.442 152.7 496.443 153.393C496.445 154.761 496.446 156.129 496.448 157.496C496.461 170.332 496.456 183.168 496.444 196.003C496.435 207.754 496.447 219.505 496.471 231.256C496.496 243.312 496.505 255.368 496.499 267.424C496.495 274.197 496.498 280.969 496.515 287.741C496.53 294.108 496.527 300.475 496.508 306.842C496.504 309.184 496.507 311.525 496.518 313.867C496.531 317.054 496.519 320.24 496.502 323.428C496.511 324.363 496.521 325.298 496.531 326.262C496.46 332.431 496.46 332.431 494.322 335.08C491.506 336.196 489.39 336.341 486.36 336.293C485.29 336.283 484.22 336.274 483.118 336.264C482.006 336.239 480.895 336.213 479.75 336.188C478.624 336.174 477.497 336.161 476.336 336.147C473.557 336.111 470.779 336.062 468 336C468.003 336.883 468.003 336.883 468.006 337.784C468.05 352.141 468.083 366.498 468.104 380.855C468.114 387.799 468.128 394.742 468.151 401.685C468.173 408.389 468.185 415.094 468.19 421.798C468.194 424.352 468.201 426.906 468.212 429.46C468.226 433.046 468.228 436.631 468.227 440.216C468.235 441.265 468.242 442.314 468.249 443.394C468.217 455.125 466.52 463.997 458.368 472.754C450.338 480.205 441.232 482.155 430.563 482.134C429.716 482.136 428.869 482.138 427.996 482.141C425.158 482.147 422.32 482.146 419.482 482.145C417.446 482.148 415.411 482.152 413.376 482.156C407.847 482.164 402.318 482.167 396.789 482.167C393.333 482.168 389.878 482.17 386.423 482.173C374.365 482.182 362.308 482.186 350.25 482.185C339.016 482.185 327.782 482.195 316.548 482.211C306.9 482.224 297.251 482.23 287.603 482.229C281.842 482.229 276.081 482.232 270.32 482.242C264.899 482.252 259.479 482.252 254.058 482.245C252.072 482.244 250.086 482.246 248.1 482.252C245.382 482.26 242.664 482.255 239.945 482.247C238.776 482.255 238.776 482.255 237.583 482.263C228.441 482.206 220.575 480.223 213 475C212.093 474.051 211.185 473.103 210.25 472.125C209.508 471.424 208.765 470.723 208 470C203.657 470.321 200.075 472.326 196.25 474.25C158.009 492.705 107.499 491.663 68.0004 478C48.5334 470.832 29.7553 459.158 20.5043 439.883C10.118 415.815 16.5642 388.098 25.6761 364.617C36.1489 338.735 51.0855 315.487 70.0004 295C69.361 294.072 68.7216 293.144 68.0629 292.188C65.0477 287.528 64.298 283.473 65.0004 278C66.754 272.73 69.2298 269.013 74.0004 266C74.6604 266 75.3204 266 76.0004 266C75.663 265.382 75.3257 264.764 74.9781 264.127C62.3602 240.866 62.3602 240.866 59.0004 228C58.7593 227.082 58.5182 226.164 58.2699 225.219C55.0423 211.182 55.0423 211.182 58.5004 205.563C61.0004 204 61.0004 204 64.4379 202.875C69.4656 201.202 73.3039 197.892 77.3439 194.58C83.4725 189.609 88.1096 188.462 95.8949 188.633C104.822 189.688 112.552 196.161 119.899 201.012C120.922 201.668 121.946 202.324 123 203C123.653 203.44 124.305 203.879 124.977 204.332C128.292 205.426 130.65 204.851 134 204C136.288 202.455 138.247 200.976 140.313 199.188C146.769 193.956 152.982 189.659 161.625 189.688C170.707 191.055 179.48 197.403 186.782 202.707C189.886 205.087 189.886 205.087 193.313 206.438C196 208 196 208 197.227 210.649C200.885 226.501 189.104 247.82 181.504 261.191C179.843 263.763 179.843 263.763 180 266C181.678 267.57 183.468 268.948 185.274 270.367C187.958 272.906 188.894 274.946 189.266 278.621C189.261 279.551 189.256 280.48 189.25 281.438C189.258 282.828 189.258 282.828 189.266 284.246C189 287 189 287 187.922 289.598C186.854 292.38 186.811 293.299 188 296C189.711 298.216 189.711 298.216 191.813 300.375C194.96 303.717 197.483 307.162 200 311C200.014 309.488 200.014 309.488 200.029 307.946C200.069 304.162 200.135 300.379 200.208 296.596C200.236 294.967 200.257 293.337 200.271 291.708C200.37 281.018 200.65 271.542 207.313 262.625C211.473 258.562 214.984 256 221 256C220.994 254.806 220.987 253.612 220.98 252.382C220.919 241.141 220.874 229.899 220.845 218.657C220.829 212.877 220.808 207.097 220.774 201.317C220.741 195.741 220.724 190.165 220.716 184.589C220.71 182.46 220.699 180.331 220.683 178.202C220.661 175.223 220.658 172.245 220.66 169.267C220.649 168.383 220.638 167.5 220.627 166.59C220.645 163.101 220.7 160.629 222.216 157.452C224.555 155.548 225.882 155.499 228.883 155.498C229.874 155.489 230.865 155.48 231.887 155.47C232.955 155.481 234.024 155.492 235.125 155.504C236.224 155.503 237.322 155.501 238.454 155.5C240.777 155.501 243.101 155.513 245.424 155.534C248.987 155.562 252.547 155.554 256.11 155.541C258.365 155.547 260.62 155.556 262.875 155.566C263.944 155.564 265.013 155.561 266.114 155.558C267.105 155.57 268.096 155.583 269.118 155.596C269.99 155.601 270.863 155.607 271.762 155.612C274.53 156.092 275.263 156.831 277 159C277.37 160.868 277.369 160.868 277.361 163.005C277.367 164.223 277.367 164.223 277.374 165.466C277.363 166.353 277.352 167.239 277.341 168.153C277.341 169.09 277.342 170.027 277.342 170.992C277.34 174.092 277.317 177.193 277.293 180.293C277.288 182.441 277.283 184.589 277.28 186.737C277.269 192.394 277.24 198.051 277.206 203.708C277.176 209.479 277.162 215.25 277.147 221.022C277.115 232.348 277.063 243.674 277 255C282.61 255 288.22 255 294 255C293.99 253.143 293.979 251.286 293.969 249.372C293.936 243.233 293.913 237.095 293.897 230.956C293.886 227.234 293.872 223.513 293.849 219.791C293.828 216.199 293.816 212.607 293.811 209.015C293.807 207.645 293.8 206.275 293.789 204.905C293.774 202.985 293.774 201.065 293.773 199.146C293.769 198.053 293.764 196.961 293.76 195.835C294.001 192.996 294.438 191.361 296 189C298.392 187.804 299.9 187.861 302.57 187.839C303.518 187.829 304.466 187.82 305.443 187.81C306.983 187.803 306.983 187.803 308.555 187.797C309.608 187.791 310.661 187.786 311.746 187.78C313.977 187.77 316.208 187.764 318.439 187.76C321.854 187.75 325.269 187.719 328.684 187.688C330.849 187.681 333.015 187.676 335.18 187.672C336.203 187.66 337.226 187.647 338.28 187.635C339.234 187.638 340.189 187.641 341.172 187.644C342.01 187.64 342.847 187.636 343.711 187.633C346.666 188.107 347.962 188.797 350 191C350.481 193.791 350.481 193.791 350.454 197.216C350.454 199.137 350.454 199.137 350.454 201.098C350.433 202.496 350.412 203.895 350.391 205.293C350.384 206.724 350.378 208.154 350.374 209.585C350.359 213.348 350.319 217.111 350.275 220.874C350.234 224.715 350.216 228.556 350.196 232.397C350.153 239.931 350.082 247.466 350 255C355.94 255 361.88 255 368 255C367.99 252.864 367.99 252.864 367.98 250.686C367.919 237.295 367.874 223.904 367.845 210.512C367.829 203.627 367.808 196.742 367.774 189.857C367.741 183.218 367.724 176.578 367.716 169.939C367.71 167.4 367.699 164.862 367.683 162.324C367.662 158.78 367.658 155.236 367.66 151.692C367.644 150.104 367.644 150.104 367.627 148.484C367.631 147.522 367.635 146.56 367.64 145.568C367.637 144.73 367.634 143.891 367.631 143.027C367.753 142.358 367.875 141.689 368 141C371.217 138.856 372.086 138.745 375.791 138.725C376.762 138.716 377.734 138.706 378.734 138.697C379.781 138.697 380.828 138.698 381.907 138.699C382.983 138.695 384.059 138.691 385.168 138.686C387.444 138.681 389.721 138.68 391.997 138.684C395.487 138.688 398.976 138.664 402.465 138.639C404.675 138.636 406.884 138.636 409.094 138.637C410.141 138.628 411.188 138.618 412.267 138.609C413.238 138.615 414.209 138.621 415.209 138.628C416.064 138.627 416.919 138.627 417.8 138.626C420.561 139.095 421.287 139.814 423 142C423.37 144.134 423.369 144.134 423.361 146.651C423.367 148.083 423.367 148.083 423.374 149.544C423.363 150.59 423.352 151.636 423.341 152.714C423.341 153.816 423.342 154.919 423.342 156.055C423.34 159.707 423.317 163.359 423.293 167.012C423.288 169.541 423.283 172.07 423.28 174.599C423.27 180.581 423.247 186.563 423.216 192.544C423.183 199.354 423.166 206.165 423.151 212.975C423.12 226.983 423.067 240.992 423 255C424.099 255.282 425.197 255.565 426.328 255.856C431.36 257.424 433.637 260.071 436.623 264.296C438.228 267.447 438.347 269.439 438.293 272.957C438.284 274.069 438.274 275.181 438.264 276.326C438.239 277.477 438.214 278.627 438.188 279.813C438.174 280.982 438.161 282.152 438.147 283.357C438.112 286.239 438.062 289.119 438 292C438.66 292 439.32 292 440 292C440.004 290.45 440.004 290.45 440.008 288.869C440.066 263.758 440.142 238.646 440.236 213.534C440.281 201.39 440.32 189.247 440.347 177.103C440.37 166.521 440.403 155.94 440.449 145.358C440.473 139.753 440.492 134.147 440.498 128.542C440.504 123.27 440.524 117.998 440.555 112.726C440.563 110.787 440.567 108.849 440.565 106.91C440.564 104.27 440.58 101.631 440.602 98.9916C440.594 97.8316 440.594 97.8316 440.587 96.6481C440.656 91.4905 440.656 91.4905 442.388 89.024C444.603 87.6177 446.175 87.6258 448.791 87.6278ZM453 100C452.815 125.695 452.672 151.39 452.586 177.085C452.545 189.016 452.488 200.947 452.397 212.877C452.317 223.276 452.265 233.674 452.248 244.073C452.237 249.579 452.213 255.085 452.155 260.591C452.1 265.775 452.083 270.957 452.095 276.141C452.093 278.042 452.077 279.944 452.047 281.845C451.535 291.691 451.535 291.691 454.779 300.631C456.773 302.376 458.725 303.662 461 305C465.058 310.743 466.786 317.153 468 324C473.28 324 478.56 324 484 324C484 250.08 484 176.16 484 100C473.77 100 463.54 100 453 100ZM380 151C380 185.32 380 219.64 380 255C390.23 255 400.46 255 411 255C411 220.68 411 186.36 411 151C400.77 151 390.54 151 380 151ZM233 168C233 196.71 233 225.42 233 255C243.56 255 254.12 255 265 255C265 226.29 265 197.58 265 168C254.44 168 243.88 168 233 168ZM306 200C306 218.15 306 236.3 306 255C316.56 255 327.12 255 338 255C338 236.85 338 218.7 338 200C327.44 200 316.88 200 306 200ZM80.8129 206.875C79.4256 207.979 78.0363 209.081 76.6449 210.18C76.0401 210.672 75.4353 211.164 74.8121 211.671C72.9535 213.034 71.0871 214.03 69.0004 215C71.8609 231.285 77.8951 246.183 87.0004 260C87.5383 260.846 88.0762 261.691 88.6304 262.562C91.8025 265.825 93.6052 265.686 98.1046 265.806C98.8125 265.831 99.5204 265.855 100.25 265.881C102.587 265.954 104.923 265.988 107.262 266.016C108.894 266.044 110.526 266.073 112.158 266.102C115.58 266.155 119.001 266.184 122.424 266.201C126.794 266.229 131.156 266.349 135.523 266.491C138.896 266.585 142.267 266.61 145.641 266.618C147.25 266.633 148.859 266.673 150.467 266.739C155.684 266.938 160.07 266.839 165 265C169.337 260.882 171.646 255.396 174 250C174.755 248.52 175.511 247.041 176.27 245.563C182.609 231.264 182.609 231.264 185 216C183.298 214.488 183.298 214.488 181.02 213.152C179.768 212.368 179.768 212.368 178.491 211.568C177.607 211.03 176.723 210.492 175.813 209.938C174.516 209.125 174.516 209.125 173.194 208.295C166.407 203.738 166.407 203.738 158.649 202.039C154.769 203.447 151.855 205.846 148.625 208.375C142.359 213.266 136.162 217.896 127.778 217.609C117.871 215.436 108.361 208.866 100.039 203.348C92.3924 198.294 87.1021 201.714 80.8129 206.875ZM215.75 272.375C213.876 275.186 213.081 276.631 213 280C214.636 285.179 216.483 287.988 221 291C224.142 292.571 227.499 292.133 230.948 292.12C231.778 292.121 232.609 292.122 233.465 292.123C236.264 292.125 239.063 292.119 241.862 292.114C243.862 292.113 245.863 292.113 247.863 292.114C253.307 292.114 258.751 292.108 264.195 292.101C269.879 292.095 275.563 292.095 281.247 292.093C292.017 292.09 302.787 292.082 313.557 292.072C325.816 292.061 338.074 292.055 350.333 292.05C375.555 292.04 400.778 292.022 426 292C426.087 288.396 426.141 284.792 426.188 281.188C426.213 280.163 426.238 279.139 426.264 278.084C426.274 277.101 426.283 276.118 426.293 275.106C426.309 274.2 426.325 273.294 426.341 272.36C426.181 269.956 426.181 269.956 424.699 268.205C421.815 266.16 418.488 266.589 415.08 266.619C414.265 266.614 413.449 266.61 412.609 266.605C409.865 266.593 407.123 266.602 404.38 266.612C402.417 266.608 400.454 266.602 398.492 266.596C393.153 266.582 387.814 266.588 382.475 266.597C376.893 266.605 371.312 266.598 365.73 266.593C356.353 266.587 346.976 266.595 337.599 266.609C326.755 266.625 315.911 266.62 305.066 266.603C295.763 266.59 286.459 266.588 277.155 266.596C271.596 266.6 266.036 266.601 260.477 266.591C255.248 266.583 250.02 266.589 244.791 266.606C242.871 266.61 240.951 266.609 239.031 266.602C236.412 266.594 233.793 266.604 231.174 266.619C230.413 266.612 229.651 266.606 228.866 266.599C222.933 266.665 219.785 268.117 215.75 272.375ZM78.0004 278C76.9123 280.357 76.9123 280.357 77.0004 283C77.8377 285.296 77.8377 285.296 80.0004 287C83.092 287.396 85.8287 287.536 88.9222 287.502C89.8347 287.507 90.7471 287.513 91.6872 287.518C94.7086 287.531 97.729 287.514 100.75 287.496C102.846 287.496 104.942 287.498 107.038 287.501C111.433 287.502 115.828 287.489 120.223 287.467C125.863 287.438 131.502 287.441 137.141 287.454C141.47 287.461 145.799 287.453 150.127 287.44C152.207 287.436 154.287 287.436 156.366 287.44C159.271 287.442 162.174 287.426 165.078 287.404C165.942 287.409 166.805 287.413 167.695 287.418C172.002 287.5 172.002 287.5 175.713 285.632C177.196 284.006 177.196 284.006 177.5 281.5C177.244 278.85 177.244 278.85 175.017 277.367C170.984 275.539 167.612 275.587 163.234 275.628C162.362 275.624 161.49 275.62 160.592 275.617C157.716 275.609 154.841 275.622 151.965 275.637C149.964 275.637 147.963 275.637 145.962 275.635C141.771 275.635 137.581 275.646 133.391 275.664C128.018 275.687 122.646 275.687 117.273 275.68C113.143 275.677 109.012 275.684 104.882 275.694C102.9 275.697 100.919 275.699 98.9381 275.697C96.1708 275.697 93.404 275.709 90.6368 275.725C89.8175 275.723 88.9982 275.72 88.154 275.718C82.7434 275.711 82.7434 275.711 78.0004 278ZM75.0004 307C73.919 308.332 72.8291 309.658 71.7269 310.973C70.6851 312.33 69.6514 313.693 68.6254 315.063C68.0679 315.803 67.5105 316.543 66.9361 317.306C65.2772 319.528 63.6346 321.76 62.0004 324C61.5487 324.618 61.097 325.235 60.6317 325.872C41.4671 352.43 24.0792 388.124 27.473 421.758C29.7108 435.516 37.3277 445.631 48.2386 454.012C67.9872 468.23 93.7778 475.048 117.989 475.203C118.725 475.21 119.462 475.217 120.22 475.225C142.788 475.518 142.788 475.518 165 472C165.808 471.801 166.615 471.603 167.447 471.398C189.523 465.788 211.485 455.832 223.739 435.723C233.265 415.166 224.357 389.037 217.321 369.121C208.416 345.014 195.296 322.077 178 303C177.234 301.979 177.234 301.979 176.453 300.937C172.946 298.167 169.607 298.41 165.32 298.419C164.444 298.406 163.569 298.392 162.667 298.378C159.773 298.34 156.879 298.333 153.985 298.328C151.969 298.315 149.954 298.302 147.939 298.288C143.712 298.264 139.485 298.256 135.259 298.259C129.853 298.259 124.45 298.205 119.045 298.136C114.881 298.091 110.717 298.083 106.552 298.085C104.56 298.081 102.568 298.063 100.577 298.032C85.5936 297.463 85.5936 297.463 75.0004 307ZM213 301C211.188 323.047 213.533 337.154 224.363 356.826C235.874 379.145 242.763 410.35 236.039 435.074C232.996 443.645 228.307 450.517 222 457C221.487 457.529 220.974 458.057 220.446 458.602C219.311 459.749 218.158 460.877 217 462C218.238 463.145 218.238 463.145 219.5 464.313C219.964 464.742 220.428 465.171 220.907 465.613C226.893 469.579 232.741 470.442 239.722 470.381C240.985 470.388 240.985 470.388 242.273 470.395C245.074 470.407 247.875 470.398 250.676 470.388C252.692 470.392 254.708 470.398 256.724 470.404C262.187 470.418 267.65 470.413 273.113 470.403C278.836 470.395 284.56 470.402 290.284 470.407C299.897 470.413 309.51 470.405 319.122 470.391C330.225 470.375 341.328 470.38 352.431 470.397C361.973 470.41 371.516 470.412 381.058 470.404C386.753 470.4 392.448 470.399 398.143 470.409C403.499 470.418 408.854 470.412 414.21 470.394C416.172 470.39 418.134 470.391 420.096 470.398C422.781 470.406 425.466 470.396 428.151 470.381C429.306 470.391 429.306 470.391 430.484 470.401C437.27 470.329 443.905 468.891 449.375 464.688C455.282 458.64 456.13 452.739 456.098 444.609C456.097 443.905 456.095 443.2 456.094 442.474C456.088 440.233 456.076 437.991 456.063 435.75C456.058 434.227 456.053 432.703 456.049 431.18C456.038 427.453 456.021 423.727 456 420C454.903 419.991 454.903 419.991 453.783 419.982C446.854 419.924 439.926 419.852 432.998 419.764C429.436 419.72 425.875 419.681 422.314 419.654C418.211 419.622 414.108 419.568 410.004 419.512C408.738 419.505 407.472 419.499 406.168 419.492C398.022 419.358 391.243 418.545 384.188 414.313C377.398 407.135 377.368 399.564 377.479 390.164C377.5 388.004 377.479 385.847 377.453 383.688C377.435 375.28 377.62 368.437 383.817 362.16C384.393 361.798 384.969 361.436 385.563 361.063C386.142 360.682 386.72 360.302 387.317 359.91C390.986 357.927 394.122 357.851 398.216 357.795C399.497 357.775 400.778 357.755 402.098 357.734C403.496 357.717 404.895 357.7 406.293 357.684C407.724 357.663 409.155 357.642 410.585 357.621C414.348 357.566 418.111 357.516 421.874 357.468C425.715 357.418 429.556 357.362 433.397 357.307C440.931 357.199 448.466 357.098 456 357C456.075 352.18 456.129 347.361 456.165 342.541C456.18 340.905 456.201 339.269 456.227 337.633C457.011 323.536 457.011 323.536 451.372 311.172C445.044 305.135 438.446 303.551 429.981 303.615C429.095 303.61 428.209 303.604 427.297 303.599C424.341 303.585 421.385 303.592 418.429 303.599C416.304 303.594 414.18 303.587 412.056 303.578C407.486 303.563 402.917 303.557 398.348 303.559C391.12 303.561 383.892 303.541 376.664 303.519C362.622 303.478 348.581 303.459 334.54 303.442C316.674 303.42 298.808 303.387 280.943 303.335C273.761 303.315 266.579 303.306 259.396 303.304C254.924 303.302 250.452 303.291 245.979 303.278C243.909 303.274 241.839 303.273 239.769 303.275C236.937 303.279 234.106 303.27 231.274 303.258C230.054 303.264 230.054 303.264 228.809 303.27C223.32 303.23 218.309 302.385 213 301ZM390 373C387.777 377.448 388.681 383.429 388.625 388.313C388.588 389.549 388.551 390.786 388.512 392.061C388.132 399.241 388.132 399.241 391.336 405.293C395.301 407.833 398.144 408.123 402.757 408.114C403.938 408.114 405.119 408.113 406.336 408.113C408.248 408.106 408.248 408.106 410.2 408.098C411.505 408.096 412.81 408.095 414.155 408.093C417.622 408.09 421.089 408.08 424.557 408.069C428.096 408.058 431.635 408.054 435.174 408.049C442.116 408.039 449.058 408.019 456 408C456 395.13 456 382.26 456 369C448.14 368.916 440.281 368.836 432.421 368.793C428.76 368.772 425.1 368.744 421.44 368.698C417.912 368.655 414.385 368.631 410.858 368.621C408.861 368.61 406.864 368.578 404.867 368.547C403.646 368.547 402.425 368.546 401.168 368.546C400.095 368.537 399.022 368.528 397.917 368.519C394.283 369.118 392.626 370.471 390 373Z" fill="white"/>
<path d="M106.531 34.4825C107.639 34.4699 108.747 34.4573 109.889 34.4443C111.08 34.4524 112.272 34.4605 113.5 34.4689C114.728 34.465 115.956 34.4612 117.221 34.4573C119.816 34.4546 122.412 34.4619 125.008 34.4786C128.985 34.5 132.96 34.4788 136.938 34.4532C139.458 34.4559 141.979 34.461 144.5 34.4689C145.692 34.4608 146.883 34.4527 148.111 34.4443C149.773 34.4632 149.773 34.4632 151.469 34.4825C152.93 34.4873 152.93 34.4873 154.42 34.4922C157.816 35.1608 158.98 36.212 161 39.0001C161.481 41.6451 161.481 41.6451 161.454 44.6866C161.454 45.8275 161.453 46.9684 161.453 48.1439C161.433 49.37 161.412 50.5962 161.391 51.8595C161.385 53.119 161.379 54.3785 161.373 55.6762C161.355 59.0172 161.319 62.3571 161.275 65.6978C161.234 69.1097 161.215 72.5217 161.195 75.9337C161.151 82.6228 161.084 89.3114 161 96.0001C161.923 95.9844 161.923 95.9844 162.864 95.9684C165.659 95.9267 168.455 95.9008 171.25 95.8751C172.218 95.8584 173.186 95.8416 174.184 95.8243C175.118 95.8179 176.053 95.8115 177.016 95.8048C177.874 95.7943 178.733 95.7839 179.618 95.7731C182.232 96.0223 183.809 96.565 186 98.0001C187.125 100.625 187.125 100.625 187 104C185.448 107.02 183.216 109.446 181 112C180.103 113.055 179.208 114.111 178.312 115.168C176.267 117.573 174.21 119.968 172.145 122.356C169.239 125.717 166.364 129.103 163.5 132.5C159.149 137.657 154.757 142.777 150.355 147.891C146.493 152.391 142.739 156.966 139.035 161.598C132.981 168.744 132.981 168.744 129.125 169.75C121.759 167.982 117.118 159.786 112.586 154.156C109.643 150.53 106.571 147.018 103.5 143.5C99.0303 138.375 94.6692 133.184 90.3945 127.895C86.8577 123.619 83.1954 119.454 79.5156 115.301C71 105.599 71 105.599 71 100.75C72 98.0001 72 98.0001 73.751 96.8405C76.3199 95.8806 78.2467 95.7714 80.9844 95.8048C82.3862 95.8145 82.3862 95.8145 83.8164 95.8243C84.7845 95.8411 85.7526 95.8579 86.75 95.8751C87.7336 95.8841 88.7171 95.8932 89.7305 95.9025C92.1539 95.926 94.5768 95.9589 97 96.0001C96.9911 95.2949 96.9822 94.5897 96.9731 93.8631C96.8929 87.2127 96.832 80.5625 96.7928 73.9117C96.7719 70.4926 96.7436 67.0738 96.6982 63.6549C96.6464 59.7232 96.627 55.7916 96.6094 51.8595C96.5887 50.6333 96.5681 49.4072 96.5468 48.1439C96.5465 47.003 96.5462 45.8621 96.5459 44.6866C96.537 43.6829 96.5281 42.6792 96.519 41.6451C97.5658 35.8891 101.102 34.5003 106.531 34.4825ZM109 47.0001C108.67 66.8001 108.34 86.6001 108 107C99.585 107.495 99.585 107.495 91 108C92.5157 111.031 93.5114 112.795 95.6523 115.215C96.1759 115.812 96.6994 116.409 97.2388 117.024C97.7994 117.656 98.3599 118.287 98.9375 118.938C100.122 120.287 101.305 121.638 102.488 122.988C103.081 123.663 103.673 124.338 104.284 125.034C106.761 127.872 109.197 130.744 111.625 133.625C112.062 134.143 112.5 134.662 112.95 135.196C113.837 136.247 114.723 137.299 115.609 138.35C118.131 141.341 120.66 144.327 123.188 147.313C124.119 148.413 125.05 149.513 125.98 150.613C126.647 151.401 127.313 152.189 128 153C132.283 151.424 134.685 148.162 137.5 144.75C138.569 143.478 139.638 142.206 140.707 140.934C141.252 140.281 141.797 139.629 142.358 138.957C144.441 136.475 146.555 134.022 148.672 131.569C155.312 123.874 161.9 116.134 168 108C162.06 107.67 156.12 107.34 150 107C149.67 87.2001 149.34 67.4001 149 47.0001C135.8 47.0001 122.6 47.0001 109 47.0001Z" fill="white"/>
<path d="M161 332C175.144 342.875 183.897 357.195 186.555 374.82C188.513 390.792 184.583 406.975 175 420C164.031 433.965 149.628 442.451 132 445C114.817 446.428 98.4345 442.444 84.7695 431.488C71.5695 420.296 63.6576 405.244 62 388C60.579 370.416 66.844 353.832 78.1133 340.5C99.7297 317.292 135.13 313.855 161 332ZM86.625 348.926C78.0775 359.836 72.6196 372.982 74 387C75.7444 396.659 78.1292 404.966 84 413C84.7219 414.031 85.4437 415.063 86.1875 416.125C95.04 426.145 107.825 432.254 121.035 433.223C135.167 433.61 146.977 429.87 157.801 420.602C168.423 410.373 174.254 398.929 175.031 384C174.883 369.78 169.855 357.247 160 347C148.471 336.345 135.732 332.316 120.324 332.691C107.469 333.374 95.3931 339.546 86.625 348.926Z" fill="white"/>
<path d="M436.057 24.3688C437.757 24.3426 439.457 24.3452 441.156 24.371C442.505 24.3674 442.505 24.3674 443.88 24.3637C445.78 24.3647 447.679 24.3781 449.579 24.403C452.49 24.4373 455.398 24.4237 458.309 24.4042C460.154 24.4111 461.999 24.4208 463.844 24.4335C464.716 24.4286 465.588 24.4236 466.486 24.4185C472.364 24.5333 472.364 24.5333 475.045 26.5002C476.443 30.1589 476.448 33.7005 476.434 37.5624C476.439 38.3907 476.444 39.219 476.45 40.0724C476.456 41.8207 476.455 43.569 476.446 45.3173C476.438 47.9909 476.467 50.6624 476.498 53.3359C476.5 55.0364 476.499 56.7369 476.496 58.4374C476.508 59.2354 476.519 60.0335 476.53 60.8556C476.485 64.4648 476.318 66.574 474.129 69.5077C472 70.9999 472 70.9999 469.438 71.4374C466.524 70.9144 465.802 70.3042 464 67.9999C463.568 65.8234 463.568 65.8234 463.489 63.332C463.453 62.4393 463.418 61.5466 463.381 60.6269C463.359 59.6981 463.336 58.7693 463.313 57.8124C463.279 56.8721 463.244 55.9317 463.209 54.9628C463.127 52.642 463.058 50.3215 463 47.9999C460.644 50.4978 458.291 52.9986 455.938 55.4999C455.281 56.196 454.624 56.8921 453.948 57.6093C450.097 61.7063 446.34 65.8656 442.655 70.1113C440.159 72.9599 437.582 75.7298 435 78.4999C431.213 82.5819 427.483 86.6977 423.84 90.9101C420.965 94.1764 418.007 97.3674 415.056 100.565C412.395 103.455 409.795 106.383 407.25 109.375C405.054 111.881 402.807 114.282 400.375 116.562C399.847 117.059 399.318 117.555 398.774 118.066C396.213 119.414 394.767 118.718 392 118C390.27 117.277 388.562 116.5 386.875 115.68C385.921 115.227 384.967 114.775 383.985 114.309C381.992 113.351 380.002 112.388 378.016 111.418C377.062 110.968 376.108 110.518 375.125 110.055C373.83 109.428 373.83 109.428 372.508 108.789C369.557 107.861 367.93 108.098 365 109C363.123 110.217 363.123 110.217 361.438 111.875C360.756 112.501 360.074 113.128 359.371 113.773C358.589 114.508 357.806 115.243 357 116C355.522 117.357 354.043 118.714 352.563 120.069C351.516 121.028 350.47 121.987 349.426 122.948C346.021 126.08 342.577 129.156 339.067 132.168C337.437 133.613 335.849 135.105 334.278 136.613C333.798 137.069 333.317 137.526 332.823 137.996C331.444 139.309 330.077 140.635 328.711 141.961C325.441 144.42 324.094 144.835 320 145C316.347 144.062 312.893 142.683 309.391 141.293C308.359 140.896 307.326 140.5 306.263 140.092C302.92 138.804 299.585 137.497 296.25 136.187C293.971 135.303 291.692 134.419 289.412 133.537C286.036 132.229 282.66 130.919 279.286 129.603C273.218 127.236 267.139 124.915 261.02 122.684C259.201 122.013 259.201 122.013 257.345 121.329C255.225 120.551 253.101 119.785 250.972 119.032C244.53 116.632 244.53 116.632 241.828 113.41C241 111 241 111 241.688 108.312C243 106 243 106 245 104C251.162 104.29 256.533 106.519 262.227 108.754C263.21 109.133 264.194 109.512 265.207 109.903C268.349 111.116 271.487 112.339 274.625 113.562C276.68 114.358 278.734 115.153 280.789 115.947C284.852 117.518 288.913 119.092 292.974 120.668C301.967 124.154 310.983 127.578 320 131C321.104 130.058 322.208 129.115 323.311 128.172C323.926 127.647 324.54 127.122 325.173 126.581C327.814 124.296 330.374 121.934 332.938 119.562C336.862 115.945 340.824 112.383 344.86 108.891C348.22 105.922 351.506 102.872 354.789 99.8183C356.181 98.532 357.59 97.2652 359 95.9999C359.614 95.376 360.227 94.7521 360.86 94.1093C364.334 92.3086 367.384 93.0006 371 93.9999C374.864 95.5227 378.582 97.3032 382.313 99.1249C384.263 100.074 386.217 101.014 388.176 101.945C389.031 102.363 389.886 102.781 390.767 103.211C393.123 104.3 393.123 104.3 396 103C397.512 101.547 397.512 101.547 399 99.6874C402.048 96.0926 405.18 92.5887 408.375 89.1249C413.289 83.7844 418.154 78.402 423 72.9999C424.5 71.333 426 69.6663 427.5 67.9999C428.614 66.7624 428.614 66.7624 429.75 65.4999C432 62.9999 434.25 60.4999 436.5 57.9999C437.236 57.1814 437.972 56.3628 438.731 55.5195C440.293 53.7851 441.858 52.0535 443.426 50.3242C444.214 49.454 445.001 48.5839 445.813 47.6874C446.874 46.5176 446.874 46.5176 447.957 45.3242C450.052 42.9411 452.037 40.4921 454 37.9999C453.415 37.9853 452.83 37.9708 452.228 37.9557C449.568 37.8811 446.909 37.7845 444.25 37.6874C443.33 37.6649 442.409 37.6423 441.461 37.6191C440.572 37.5836 439.682 37.5482 438.766 37.5116C437.949 37.4855 437.132 37.4593 436.29 37.4323C433.504 36.9063 432.092 35.8829 430 33.9999C429.063 32.1249 429.063 32.1249 429 29.9999C430.463 25.8936 431.836 24.683 436.057 24.3688Z" fill="white"/>
<path d="M124.5 342.75C128 343 128 343 130 345C130.125 348.625 130.125 348.625 130 352C131.02 352.062 131.02 352.062 132.062 352.125C136.92 353.572 140.546 356.558 143.148 360.93C145.087 365.502 145.365 369.123 144 374C141 376 141 376 137.937 375.75C135 375 135 375 133 373C132.69 371.845 132.381 370.69 132.062 369.5C131.332 365.763 131.332 365.763 128 364C124.026 363.567 121.856 363.422 118.5 365.688C116.789 367.9 116.789 367.9 116.875 370.562C118.476 374.032 120.545 374.481 124 376C127.273 377.034 130.566 377.939 133.878 378.84C137.964 380.359 140.939 382.195 143.179 386.008C145.105 391.872 145.51 396.968 144 403C141.735 407.368 139.109 410.294 135 413C132.187 413.75 132.187 413.75 130 414C130.061 414.928 130.123 415.856 130.187 416.812C130 420 130 420 128.937 421.938C125.75 423.685 123.397 422.927 120 422C117.761 419.177 118 417.721 118 414C116.7 413.722 116.7 413.722 115.375 413.438C110.148 411.211 107.276 407.379 104.625 402.438C103.604 398.458 103.34 395.392 105.125 391.625C107 390 107 390 110 389.562C113 390 113 390 114.75 391.062C116 393 116 393 116.937 396.562C117.615 400 117.615 400 119.769 401.238C122.376 402.129 124.038 402.024 126.75 401.625C128.152 401.419 129.555 401.213 131 401C131.33 398.03 131.66 395.06 132 392C131.394 391.818 130.788 391.636 130.164 391.449C128.398 390.92 126.634 390.387 124.871 389.852C123.016 389.301 121.154 388.774 119.285 388.273C110.434 385.851 110.434 385.851 107 382C104.12 376.743 103.436 371.915 104 366C106.093 359.498 109.366 355.756 115 352C115.99 352 116.98 352 118 352C118.123 350.886 118.247 349.773 118.375 348.625C119.196 343.859 119.639 343.097 124.5 342.75Z" fill="white"/>
<path d="M419.071 374.266C423.004 377.525 425.615 380.354 426.371 385.551C426.508 391.239 426.265 395.208 422.481 399.629C418.916 402.93 415.909 403.897 411.125 404.438C405.859 404.195 401.263 402.397 397.61 398.527C394.407 393.757 394.087 388.579 395 383C397.206 378.589 399.923 375.752 404 373C409.043 371.371 414.482 371.461 419.071 374.266ZM410 384C409.01 384.66 408.02 385.32 407 386C407.33 387.65 407.66 389.3 408 391C409.892 391.682 409.892 391.682 412 392C412.66 391.34 413.32 390.68 414 390C413.68 387.397 413.68 387.397 413 385C412.01 384.67 411.02 384.34 410 384Z" fill="white"/>
</svg>
