<svg width="512" height="512" viewBox="0 0 512 512" fill="none" xmlns="http://www.w3.org/2000/svg">
<path d="M358.73 263.466C359.714 263.454 359.714 263.454 360.718 263.44C362.875 263.418 365.031 263.424 367.188 263.434C368.693 263.428 370.198 263.422 371.704 263.415C374.854 263.404 378.005 263.409 381.155 263.424C385.187 263.441 389.218 263.417 393.25 263.382C396.357 263.36 399.465 263.362 402.572 263.37C404.058 263.371 405.545 263.364 407.031 263.349C409.111 263.332 411.189 263.346 413.27 263.369C415.042 263.37 415.042 263.37 416.851 263.372C421.06 264.211 422.352 265.65 425 269C425.482 271.871 425.657 274.141 425.601 277.004C425.606 277.805 425.61 278.605 425.614 279.43C425.622 282.11 425.595 284.788 425.568 287.468C425.566 289.39 425.567 291.312 425.57 293.234C425.571 298.45 425.542 303.667 425.507 308.883C425.476 314.335 425.473 319.787 425.467 325.239C425.451 335.563 425.41 345.886 425.36 356.21C425.304 367.963 425.277 379.716 425.252 391.469C425.199 415.646 425.111 439.823 425 464C425.63 463.991 426.26 463.982 426.909 463.973C433.463 463.885 440.016 463.824 446.57 463.78C449.016 463.76 451.462 463.733 453.909 463.698C457.424 463.65 460.938 463.627 464.453 463.609C465.548 463.589 466.643 463.568 467.771 463.547C468.792 463.546 469.813 463.546 470.864 463.546C471.761 463.537 472.659 463.528 473.583 463.519C476.777 464.154 477.97 465.514 480 468C480.531 470 480.531 470 480.5 472C480.515 472.99 480.515 472.99 480.531 474C479.738 476.986 478.422 478.097 476 480C473.407 480.392 471.238 480.538 468.647 480.503C467.901 480.509 467.155 480.515 466.386 480.521C463.871 480.536 461.357 480.522 458.842 480.508C457.026 480.512 455.211 480.519 453.395 480.527C448.395 480.544 443.395 480.535 438.395 480.523C433.008 480.514 427.62 480.528 422.232 480.539C411.672 480.557 401.113 480.553 390.554 480.541C381.975 480.532 373.395 480.531 364.816 480.535C363.597 480.536 362.377 480.536 361.121 480.537C358.644 480.538 356.167 480.54 353.69 480.541C330.444 480.552 307.198 480.539 283.952 480.518C263.992 480.5 244.031 480.503 224.07 480.521C200.91 480.543 177.749 480.551 154.588 480.539C152.12 480.538 149.652 480.536 147.184 480.535C145.362 480.534 145.362 480.534 143.504 480.533C134.931 480.53 126.359 480.536 117.787 480.545C107.345 480.556 96.9031 480.553 86.4612 480.532C81.1302 480.521 75.7993 480.517 70.4682 480.531C65.5927 480.542 60.7177 480.536 55.8423 480.515C54.0738 480.51 52.3053 480.513 50.5369 480.522C48.1417 480.534 45.7478 480.522 43.3527 480.503C42.6584 480.513 41.9641 480.522 41.2488 480.532C37.8911 480.479 36.2487 480.195 33.5737 478.093C31.8655 475.821 31.4562 474.805 31.5 472C31.4845 471.01 31.4845 471.01 31.4688 470C32.2962 466.885 33.3679 465.908 36 464C39.4274 463.499 42.7956 463.624 46.25 463.75C47.1859 463.768 48.1217 463.786 49.0859 463.805C51.3917 463.852 53.6953 463.917 56 464C55.9954 463.344 55.9908 462.688 55.986 462.012C55.8756 446.055 55.7929 430.097 55.7409 414.14C55.7151 406.423 55.68 398.706 55.6228 390.989C55.573 384.264 55.5407 377.538 55.5296 370.813C55.523 367.251 55.5077 363.69 55.4713 360.128C55.4311 356.153 55.43 352.179 55.4324 348.204C55.4144 347.022 55.3964 345.839 55.3779 344.621C55.4279 336.739 55.4279 336.739 58.1138 333.27C61.5422 331.761 63.999 331.492 67.7463 331.482C68.4039 331.475 69.0614 331.468 69.7389 331.461C71.9006 331.444 74.061 331.455 76.2227 331.469C77.7305 331.466 79.2383 331.462 80.7462 331.457C83.901 331.451 87.0554 331.46 90.2102 331.478C94.2512 331.501 98.2912 331.488 102.332 331.464C105.444 331.45 108.555 331.454 111.667 331.465C113.157 331.467 114.647 331.464 116.137 331.455C118.219 331.445 120.3 331.46 122.383 331.482C124.159 331.487 124.159 331.487 125.971 331.492C129.607 332.102 130.75 333.144 133 336C134.256 338.512 134.123 340.212 134.12 343.024C134.122 344.618 134.122 344.618 134.124 346.245C134.119 348.001 134.119 348.001 134.114 349.793C134.114 351.023 134.114 352.252 134.114 353.518C134.113 356.894 134.108 360.27 134.101 363.646C134.095 367.172 134.095 370.698 134.093 374.224C134.09 380.903 134.082 387.583 134.072 394.262C134.061 401.865 134.055 409.469 134.05 417.072C134.04 432.715 134.022 448.357 134 464C140.27 464 146.54 464 153 464C152.974 461.325 152.948 458.65 152.921 455.893C152.838 447.061 152.783 438.228 152.741 429.395C152.715 424.038 152.679 418.683 152.623 413.327C152.569 408.159 152.539 402.992 152.526 397.824C152.516 395.851 152.498 393.878 152.471 391.905C152.435 389.144 152.43 386.385 152.432 383.624C152.414 382.806 152.396 381.988 152.378 381.146C152.412 377.38 152.654 375.411 155.114 372.492C158.578 370.701 160.852 370.499 164.746 370.498C165.733 370.49 165.733 370.49 166.739 370.482C168.901 370.469 171.061 370.486 173.223 370.504C174.731 370.504 176.238 370.502 177.746 370.499C180.901 370.498 184.055 370.511 187.21 370.533C191.251 370.562 195.291 370.559 199.332 370.546C202.444 370.539 205.555 370.547 208.667 370.56C210.157 370.564 211.647 370.564 213.137 370.56C215.219 370.558 217.301 370.574 219.383 370.596C220.567 370.601 221.751 370.607 222.971 370.612C226.288 371.037 227.664 371.645 230 374C231.268 377.804 231.131 381.364 231.114 385.327C231.114 386.176 231.114 387.025 231.114 387.9C231.113 390.708 231.105 393.516 231.098 396.324C231.096 398.27 231.094 400.217 231.093 402.163C231.09 407.287 231.08 412.412 231.069 417.536C231.058 422.764 231.054 427.992 231.049 433.221C231.038 443.48 231.021 453.74 231 464C237.27 464 243.54 464 250 464C249.991 462.117 249.982 460.234 249.973 458.294C249.892 440.577 249.832 422.86 249.793 405.143C249.772 396.034 249.744 386.925 249.698 377.816C249.658 369.877 249.633 361.939 249.624 354C249.618 349.796 249.606 345.592 249.577 341.387C249.55 337.431 249.542 333.475 249.548 329.519C249.546 328.066 249.538 326.613 249.523 325.16C249.503 323.178 249.51 321.196 249.519 319.214C249.515 318.104 249.512 316.994 249.508 315.85C250.118 312.319 251.201 311.172 254 309C257.269 307.91 259.695 307.86 263.136 307.839C264.401 307.829 265.666 307.82 266.969 307.81C268.352 307.805 269.735 307.801 271.117 307.797C272.536 307.791 273.954 307.785 275.373 307.78C278.347 307.769 281.321 307.763 284.295 307.76C288.101 307.754 291.906 307.73 295.711 307.702C298.642 307.683 301.572 307.678 304.503 307.676C305.905 307.673 307.308 307.665 308.711 307.652C310.675 307.635 312.64 307.639 314.605 307.643C315.722 307.64 316.839 307.636 317.989 307.632C321.414 308.05 323.252 308.944 326 311C328.341 314.512 328.247 315.902 328.241 320.055C328.245 321.955 328.245 321.955 328.249 323.892C328.242 325.298 328.234 326.704 328.227 328.11C328.226 329.588 328.227 331.067 328.228 332.545C328.229 336.561 328.217 340.577 328.203 344.593C328.19 348.79 328.189 352.986 328.187 357.182C328.181 365.129 328.164 373.076 328.144 381.023C328.122 390.07 328.111 399.117 328.101 408.165C328.08 426.776 328.044 445.388 328 464C334.27 464 340.54 464 347 464C346.989 461.553 346.978 459.107 346.966 456.586C346.864 433.571 346.79 410.556 346.741 387.542C346.715 375.708 346.68 363.875 346.623 352.042C346.573 341.73 346.541 331.419 346.53 321.107C346.523 315.645 346.508 310.183 346.471 304.721C346.437 299.583 346.427 294.445 346.434 289.307C346.433 287.419 346.423 285.531 346.404 283.642C346.379 281.068 346.385 278.496 346.399 275.922C346.384 275.171 346.37 274.42 346.355 273.646C346.409 269.877 346.703 268.313 349.341 265.537C352.675 263.61 354.888 263.487 358.73 263.466ZM364 281C364 341.39 364 401.78 364 464C378.52 464 393.04 464 408 464C408 403.61 408 343.22 408 281C393.48 281 378.96 281 364 281ZM267 325C267 370.87 267 416.74 267 464C281.52 464 296.04 464 311 464C311 418.13 311 372.26 311 325C296.48 325 281.96 325 267 325ZM72 349C72 386.95 72 424.9 72 464C86.85 464 101.7 464 117 464C117 426.05 117 388.1 117 349C102.15 349 87.3 349 72 349ZM170 388C170 413.08 170 438.16 170 464C184.52 464 199.04 464 214 464C214 438.92 214 413.84 214 388C199.48 388 184.96 388 170 388Z" fill="white"/>
<path d="M254 53.0627C277.946 71.8771 292.794 96.2743 298.613 126.149C300.185 141.805 300.507 158.821 296 174C295.671 175.196 295.343 176.393 295.004 177.625C286.067 207.313 265.547 230.45 238.625 245.25C212.628 258.959 180.793 261.242 152.785 252.746C122.594 243.068 99.5021 222.675 84.7482 194.727C81.3765 188.051 79.0124 181.211 77.0002 174C76.5206 172.388 76.5206 172.388 76.0314 170.742C71.679 153.373 71.9029 132.17 77.0002 115C77.3289 113.804 77.6576 112.608 77.9963 111.375C86.1554 84.2722 105.266 59.4202 130.261 45.7649C170.217 25.0242 216.998 26.6893 254 53.0627ZM121 74.0002C120.316 74.5829 119.631 75.1656 118.926 75.7659C103.019 90.4493 92.2686 113.579 90.7934 135.003C90.6976 138.11 90.6709 141.205 90.6877 144.313C90.6933 145.413 90.6989 146.513 90.7048 147.646C90.8268 155.83 91.5123 163.158 94.0002 171C94.2822 171.924 94.2822 171.924 94.57 172.866C102.692 198.887 120.415 218.253 144.346 230.89C166.353 241.913 192.647 243.457 216 236C217.665 235.492 217.665 235.492 219.363 234.973C239.165 228.179 255.49 214.255 267 197C267.625 196.068 268.251 195.136 268.895 194.176C272.445 188.507 275.057 182.71 277.313 176.438C277.677 175.43 277.677 175.43 278.048 174.402C286.095 150.743 283.654 124.133 272.973 101.781C261.568 79.2358 241.152 61.0256 217.125 53.0627C182.237 42.4541 148.33 50.3598 121 74.0002Z" fill="white"/>
<path d="M418.06 119.501C424.096 120.526 429.645 123.294 435.186 125.817C437.383 126.816 439.59 127.79 441.801 128.76C443.209 129.387 444.616 130.015 446.023 130.645C446.679 130.935 447.336 131.226 448.012 131.526C454.281 134.398 454.281 134.398 456 137C457.321 146.072 455.498 155.795 454.138 164.805C453.809 167.023 453.512 169.243 453.217 171.465C453.007 172.894 452.795 174.322 452.582 175.75C452.398 177.024 452.215 178.297 452.026 179.61C450.802 183.653 449.29 185.394 446 188C442.367 188.51 440.032 188.408 436.625 187.063C433.161 182.667 433.864 177.347 434.394 172.074C434.859 168.371 435.412 164.686 436 161C434.563 162.091 434.563 162.091 433.097 163.203C425.324 169.081 417.481 174.833 409.5 180.427C404.3 184.073 399.141 187.772 394 191.5C388.194 195.707 382.365 199.876 376.5 204C367.609 210.255 358.801 216.621 350 223C340.502 229.883 330.985 236.734 321.392 243.483C313.208 249.248 305.105 255.126 297 261C287.502 267.883 277.985 274.734 268.392 281.483C260.208 287.248 252.105 293.126 244 299C233.707 306.459 223.402 313.898 212.992 321.192C210.397 323.01 207.82 324.851 205.258 326.715C204.109 327.539 202.961 328.364 201.812 329.188C200.829 329.903 199.845 330.619 198.832 331.356C195.558 333.257 193.805 334.061 190 334C183.701 331.146 177.951 327.082 172.261 323.188C171.439 322.629 170.616 322.071 169.768 321.496C167.996 320.294 166.225 319.09 164.455 317.884C159.686 314.638 154.908 311.404 150.129 308.172C149.139 307.503 148.149 306.833 147.129 306.144C134.364 297.526 121.488 289.077 108.608 280.633C93.6171 270.8 93.6171 270.8 86.3044 265.797C85.2911 265.105 84.2777 264.412 83.2336 263.698C80.9997 262 80.9997 262 79.9997 260C79.431 252.948 79.431 252.948 81.4997 249.5C84.9907 247.406 88.077 247.339 91.9997 248C95.2156 249.416 98.0095 251.331 100.894 253.324C101.743 253.89 102.593 254.455 103.468 255.038C106.261 256.904 109.036 258.795 111.812 260.688C113.759 261.996 115.707 263.302 117.656 264.606C122.754 268.026 127.838 271.467 132.918 274.913C137.951 278.322 142.997 281.711 148.043 285.102C156.163 290.562 164.273 296.039 172.376 301.525C178.565 305.712 184.773 309.87 191 314C197.429 310.086 203.518 305.936 209.5 301.375C215.439 296.847 221.497 292.554 227.687 288.375C233.088 284.727 238.373 281.026 243.5 277C248.626 272.975 253.912 269.274 259.312 265.625C266.047 261.073 272.614 256.366 279.085 251.448C284.473 247.364 289.968 243.45 295.504 239.57C300.702 235.925 305.86 232.227 311 228.5C316.805 224.293 322.635 220.124 328.5 216C337.391 209.746 346.198 203.379 355 197C364.494 190.119 374.007 183.27 383.599 176.524C389.586 172.307 395.525 168.027 401.456 163.733C408.282 158.791 415.137 153.891 422 149C424.333 147.334 426.667 145.667 429 144C427.805 143.403 427.805 143.403 426.586 142.793C423.39 141.196 420.195 139.598 417 138C415.376 137.215 415.376 137.215 413.718 136.414C410.779 134.885 409.51 133.936 408 131C407.45 127.312 407.766 125.468 409.437 122.125C412.408 119.661 414.253 119.408 418.06 119.501Z" fill="white"/>
<path d="M248.625 84.125C264.431 100.472 272.647 121.627 272.437 144.313C272.428 145.492 272.419 146.672 272.41 147.888C271.939 171.732 261.697 192.232 244.555 208.723C225.081 226.082 202.353 230.93 177.062 230.184C154.448 228.828 135.714 216.296 120.523 200.41C103.185 180.599 99.6679 156.456 101 131C103.154 110.351 116.392 90.0938 132 77C168.162 49.1359 216.119 53.4177 248.625 84.125ZM134 99C123.292 111.661 117.39 127.673 117.5 144.188C117.505 145.185 117.51 146.182 117.515 147.21C117.961 166.337 126.634 182.892 140.238 196.188C155.886 209.652 174.224 214.241 194.479 213.207C212.338 211.74 228.626 201.843 240.187 188.438C243.383 184.217 245.906 179.762 248.312 175.063C248.638 174.431 248.964 173.799 249.299 173.148C253.778 163.961 255.546 154.868 255.437 144.688C255.43 143.684 255.422 142.681 255.414 141.647C254.997 122.736 246.969 107.104 233.773 93.7461C204.271 66.2768 161.045 70.9846 134 99Z" fill="white"/>
<path d="M190 82.9999C192.938 84.8749 192.938 84.8749 195 87.9999C195.402 91.3767 195.296 94.6174 195 97.9999C196.114 98.2267 197.227 98.4536 198.375 98.6874C206.613 100.769 214.841 105.097 221 111C223.063 114.463 223.577 116.958 223 121C220.524 124.452 218.962 125.773 214.812 126.75C210.071 125.817 207.309 123.747 203.527 120.824C200.558 118.578 200.558 118.578 195 116C195 123.26 195 130.52 195 138C198.3 138.99 201.6 139.98 205 141C213.088 145.129 219.104 151.311 222 160C222.726 167.862 221.519 173.931 217.375 180.625C211.606 186.394 204.925 190.09 197 192C196.34 192 195.68 192 195 192C195.052 192.905 195.052 192.905 195.105 193.828C195.225 197.342 195.317 200.208 194 203.5C190.937 205.797 187.73 206.203 184 206C181.002 204.66 179.472 203.944 178 201C177.93 199.293 177.916 197.583 177.938 195.875C177.947 194.965 177.956 194.055 177.965 193.117C177.976 192.418 177.988 191.72 178 191C177.394 190.865 176.788 190.729 176.164 190.59C168.977 188.743 163.809 185.547 158 181C157.376 180.518 156.752 180.036 156.109 179.539C152.391 176.56 150.193 174.49 149.562 169.625C150 166 150 166 152.062 163.062C155.776 160.455 157.53 160.51 162 161C164.949 162.898 164.949 162.898 167.688 165.375C170.833 168.178 173.196 170.098 177 172C177.33 165.07 177.66 158.14 178 151C176.35 150.67 174.7 150.34 173 150C163.535 146.18 156.469 141.282 152 132C149.728 126.131 150.576 119.612 152.965 113.945C157.003 106.356 163.413 101.852 171.25 98.6874C174 97.9999 174 97.9999 178 97.9999C177.942 97.336 177.884 96.6721 177.824 95.9881C177.589 91.3853 177.466 88.8089 180.062 84.8749C183.786 82.4981 185.658 82.2245 190 82.9999ZM169 120.937C167.74 123.008 167.74 123.008 168.5 125.5C170.87 129.45 173.652 131.551 178 133C178 127.06 178 121.12 178 115C174.763 115 171.203 118.803 169 120.937ZM195 156C195 161.94 195 167.88 195 174C201.421 171.983 201.421 171.983 205 167C205.319 164.424 205.319 164.424 204 162C201.065 159.193 198.865 157.288 195 156Z" fill="white"/>
</svg>
