<svg width="512" height="512" viewBox="0 0 512 512" fill="none" xmlns="http://www.w3.org/2000/svg">
<path d="M385.562 9.99979C392.644 14.2201 397.45 20.2073 400 27.9998C400.924 33.1991 401.124 38.1826 401.062 43.4373C401.051 44.7863 401.04 46.1354 401.029 47.4844C401.015 49.2245 401.015 49.2245 401 50.9998C401.895 50.7411 402.789 50.4824 403.711 50.2159C418.781 45.9201 433.99 42.1585 449.191 38.3594C453.13 37.3746 457.068 36.3832 461.006 35.3903C464.061 34.621 467.117 33.856 470.173 33.0922C471.627 32.7281 473.081 32.3625 474.534 31.9953C476.551 31.4861 478.57 30.9828 480.589 30.481C482.307 30.0506 482.307 30.0506 484.058 29.6115C487 28.9998 487 28.9998 491 28.9998C490.397 34.5419 489.44 39.8059 488.066 45.2041C487.873 45.9808 487.679 46.7574 487.48 47.5576C486.845 50.0981 486.204 52.6368 485.562 55.1756C485.117 56.9505 484.673 58.7255 484.229 60.5006C483.3 64.2072 482.369 67.913 481.434 71.6182C480.237 76.3697 479.044 81.1225 477.853 85.8758C476.716 90.4136 475.577 94.9509 474.437 99.4881C474.111 100.787 474.111 100.787 473.779 102.111C473.165 104.555 472.55 106.999 471.934 109.442C471.752 110.167 471.57 110.892 471.382 111.638C470.669 114.463 469.922 117.235 469 120C464.995 118.396 462.323 115.579 459.359 112.554C458.832 112.025 458.305 111.495 457.762 110.949C456.087 109.262 454.418 107.569 452.75 105.875C451.612 104.727 450.474 103.58 449.336 102.433C446.552 99.6274 443.774 96.8153 441 93.9998C437.906 95.3852 435.715 96.9993 433.273 99.3411C432.559 100.023 431.845 100.705 431.109 101.407C427.873 104.554 424.642 107.704 421.427 110.872C419.733 112.534 418.028 114.184 416.312 115.824C413.826 118.199 411.375 120.607 408.93 123.023C408.165 123.742 407.4 124.462 406.613 125.203C401.634 130.222 400.016 134.129 399.372 141.178C398.302 149.29 392.957 156.621 387 162C377.258 169.124 367.487 171.378 355.633 172.387C353.898 172.547 353.898 172.547 352.128 172.71C348.461 173.046 344.793 173.367 341.125 173.687C338.638 173.914 336.151 174.141 333.664 174.369C329.131 174.781 324.597 175.191 320.063 175.588C319.155 175.668 318.247 175.748 317.312 175.83C315.545 175.96 313.772 176 312 176C312 186.56 312 197.12 312 208C319.632 208.121 327.248 208.231 334.878 208.23C338.432 208.233 341.982 208.256 345.535 208.332C361.712 209.511 361.712 209.511 376.245 204.389C379.091 201.609 381.049 198.463 383 195C384.174 193.595 385.375 192.212 386.625 190.875C387.164 190.253 387.703 189.632 388.258 188.992C390.315 186.64 392.406 184.319 394.5 182C397.19 179.019 399.863 176.027 402.5 173C405.892 169.105 409.352 165.272 412.812 161.437C415.294 158.672 417.737 155.876 420.176 153.074C423.043 149.814 425.966 146.606 428.887 143.394C431.003 140.996 433.002 138.497 435 136C441.93 136 448.86 136 456 136C456.33 207.28 456.66 278.56 457 352C462.28 353.98 467.56 355.96 473 358C485.855 364.369 497.992 371.415 504 385C504.401 388.008 504.401 388.008 504.436 391.214C504.455 392.422 504.474 393.631 504.494 394.876C504.499 396.817 504.499 396.817 504.504 398.797C504.513 400.154 504.524 401.512 504.534 402.869C504.552 405.71 504.558 408.551 504.556 411.392C504.556 415.008 504.596 418.622 504.648 422.238C504.682 425.042 504.688 427.845 504.686 430.649C504.691 432.622 504.724 434.595 504.757 436.568C504.677 447.14 501.558 453.646 494.125 461.062C456.501 492.124 395.275 496.131 348.584 500.743C346.126 500.987 343.668 501.243 341.211 501.5C313.844 504.299 286.375 504.313 258.893 504.368C256 504.375 253.107 504.386 250.214 504.399C190.197 504.624 129.213 500.421 70.9999 485C69.8315 484.701 69.8315 484.701 68.6396 484.396C48.4815 479.212 22.1534 470.634 10.412 452.234C7.02 445.994 7.28089 439.833 7.33585 432.875C7.33247 431.519 7.32761 430.164 7.32135 428.808C7.31402 425.98 7.32456 423.153 7.34805 420.326C7.37654 416.725 7.36013 413.125 7.3302 409.524C7.31202 406.729 7.31793 403.934 7.33084 401.139C7.33574 399.173 7.3207 397.207 7.30518 395.241C7.42363 386.135 9.29826 380.434 15.1132 373.469C31.6584 358.657 52.6061 352.26 73.6093 346.457C74.4091 346.225 75.2089 345.994 76.033 345.755C78.9999 345 78.9999 345 82.2101 344.542C95.1493 342.225 102.148 334.273 110.996 325.078C112.564 323.489 114.134 321.903 115.707 320.32C119.811 316.174 123.88 311.997 127.943 307.812C132.106 303.536 136.301 299.291 140.494 295.043C148.694 286.725 156.858 278.374 165 270C164.476 269.062 164.476 269.062 163.941 268.105C157.754 255.013 159.599 246.184 159 230C119.4 269.6 79.7999 309.2 38.9999 350C35.1571 348.078 33.1956 346.407 30.2499 343.375C29.0511 342.149 29.0511 342.149 27.828 340.898C27.2248 340.272 26.6215 339.645 25.9999 339C27.5736 335.106 30.2296 332.557 33.207 329.707C33.7429 329.186 34.2789 328.664 34.8311 328.127C36.6283 326.38 38.4325 324.641 40.2365 322.901C41.5264 321.649 42.8156 320.397 44.1044 319.144C46.1649 317.141 48.2258 315.139 50.2886 313.138C55.413 308.167 60.518 303.177 65.6117 298.175C66.3519 297.448 67.092 296.722 67.8546 295.973C70.9086 292.973 73.9619 289.973 77.0148 286.972C85.6674 278.469 94.3375 269.986 103.065 261.56C110.001 254.863 116.895 248.125 123.744 241.339C127.365 237.753 131.004 234.19 134.695 230.676C152.692 214.961 152.692 214.961 161.217 193.719C161.19 189.881 160.829 186.194 160.244 182.404C159.08 170.929 166.496 157.261 173.296 148.29C184.797 134.227 199.124 126.096 216 120C215.48 119.466 214.961 118.932 214.426 118.383C204.268 107.53 199.396 95.1765 199.5 80.3123C199.506 79.3555 199.511 78.3987 199.517 77.4129C199.84 64.4501 203.762 54.1356 212 43.9998C212.626 43.1671 213.253 42.3343 213.898 41.4764C221.703 32.2785 235.34 24.8804 247.426 23.7786C258.4 23.3031 268.932 23.102 279 27.9998C279.962 28.4587 280.923 28.9176 281.914 29.3904C297.007 37.1199 305.54 49.2942 311.109 65.16C315.185 82.734 311.212 98.8913 302 114C301.67 114.33 301.34 114.66 301 115C311.402 114.495 321.78 113.809 332.16 112.961C333.305 112.868 334.45 112.776 335.629 112.68C338.419 112.454 341.21 112.228 344 112C343.989 110.97 343.978 109.939 343.966 108.878C343.865 99.1392 343.79 89.4005 343.741 79.6612C343.715 74.6549 343.68 69.649 343.623 64.6429C343.568 59.8058 343.538 54.9692 343.526 50.1319C343.516 48.2924 343.498 46.4529 343.471 44.6136C343.182 24.2013 343.182 24.2013 350.99 15.8781C360.103 7.09878 373.927 4.71729 385.562 9.99979ZM362 29.9998C359.77 35.0764 359.726 39.6911 359.773 45.1263C359.773 46.0245 359.772 46.9227 359.772 47.8481C359.773 50.8024 359.789 53.7565 359.805 56.7107C359.808 58.7648 359.811 60.8189 359.813 62.873C359.821 68.2685 359.84 73.664 359.863 79.0595C359.883 84.5695 359.892 90.0796 359.902 95.5896C359.924 106.393 359.958 117.196 360 128C358.858 128.058 357.716 128.117 356.539 128.177C347.149 128.669 337.792 129.295 328.43 130.191C327.256 130.301 326.083 130.41 324.875 130.523C321.208 130.866 317.541 131.214 313.875 131.562C311.355 131.799 308.836 132.035 306.316 132.271C300.211 132.844 294.105 133.42 288 134C287.816 135.329 287.816 135.329 287.628 136.685C287.46 137.851 287.291 139.017 287.117 140.219C286.953 141.373 286.789 142.527 286.621 143.717C285.329 150.549 281.855 157.154 276.18 161.344C269.767 165.537 263.967 167.393 256.25 167.375C255.548 167.373 254.845 167.372 254.122 167.37C246.106 167.182 238.706 164.864 233 159C227.629 151.96 225.06 145.836 224 137C207.492 140.489 194.445 147.805 184.937 162.063C176.643 175.208 175.68 190.093 175.734 205.301C175.732 206.502 175.73 207.704 175.728 208.942C175.727 211.457 175.731 213.972 175.739 216.487C175.75 220.32 175.739 224.153 175.726 227.986C175.728 230.445 175.73 232.904 175.734 235.363C175.73 236.498 175.726 237.632 175.722 238.801C175.78 248.677 176.288 257.329 183.641 264.629C189.102 269.556 192.432 271 200 271C200 237.01 200 203.02 200 168C205.28 168 210.56 168 216 168C215.996 169.719 215.996 169.719 215.992 171.473C215.925 199.366 215.876 227.259 215.844 255.151C215.841 257.837 215.838 260.523 215.835 263.209C215.834 264.21 215.834 264.21 215.833 265.231C215.82 276.031 215.796 286.83 215.768 297.63C215.74 308.716 215.724 319.803 215.718 330.89C215.714 337.115 215.705 343.339 215.683 349.564C215.662 355.426 215.656 361.287 215.661 367.148C215.66 369.297 215.654 371.446 215.642 373.595C215.627 376.535 215.631 379.474 215.639 382.414C215.626 383.682 215.626 383.682 215.613 384.975C215.658 391.041 216.253 397.915 220.452 402.63C225.207 406.674 228.394 407.356 234.461 407.277C238.225 406.866 240.218 405.517 243 403C247.498 397.286 248.126 392.743 248.12 385.628C248.122 384.342 248.123 383.056 248.124 381.732C248.121 380.314 248.117 378.897 248.113 377.479C248.113 375.981 248.113 374.483 248.114 372.984C248.114 368.923 248.108 364.861 248.101 360.8C248.095 356.553 248.094 352.306 248.093 348.059C248.09 340.02 248.082 331.981 248.072 323.942C248.061 314.788 248.055 305.635 248.05 296.481C248.04 277.654 248.022 258.827 248 240C253.28 240 258.56 240 264 240C263.993 241.884 263.987 243.768 263.98 245.71C263.919 263.469 263.874 281.229 263.844 298.988C263.829 308.119 263.808 317.249 263.774 326.379C263.744 334.34 263.724 342.3 263.718 350.26C263.714 354.473 263.705 358.686 263.683 362.898C263.662 366.869 263.656 370.839 263.661 374.809C263.66 376.261 263.654 377.714 263.642 379.166C263.215 391.681 263.215 391.681 268.452 402.609C273.179 406.691 276.401 407.356 282.461 407.277C286.225 406.866 288.218 405.517 291 403C296.189 396.408 296.147 390.625 296.12 382.591C296.121 381.639 296.122 380.688 296.123 379.707C296.124 376.516 296.119 373.326 296.113 370.135C296.113 367.849 296.113 365.562 296.114 363.276C296.114 357.066 296.108 350.856 296.101 344.645C296.095 338.156 296.094 331.667 296.093 325.178C296.091 314.286 296.084 303.394 296.075 292.501C296.066 281.283 296.059 270.065 296.055 258.846C296.054 257.809 296.054 257.809 296.054 256.75C296.053 253.28 296.051 249.81 296.05 246.34C296.04 217.56 296.022 188.78 296 160C297.94 159.9 297.94 159.9 299.92 159.799C301.64 159.71 303.36 159.621 305.08 159.532C305.93 159.488 306.78 159.445 307.656 159.4C314.361 159.051 321.044 158.567 327.73 157.949C328.817 157.849 329.903 157.749 331.022 157.646C333.276 157.435 335.53 157.223 337.783 157.008C340.072 156.792 342.361 156.584 344.651 156.383C348.012 156.087 351.371 155.771 354.73 155.449C355.745 155.363 356.76 155.278 357.805 155.19C365.754 154.389 372.566 152.476 377.875 146.062C383.898 138.657 384.15 130.917 384.145 121.709C384.149 120.793 384.152 119.877 384.155 118.933C384.165 115.915 384.167 112.897 384.168 109.879C384.171 107.774 384.174 105.67 384.178 103.565C384.184 99.1577 384.186 94.7505 384.185 90.3433C384.185 84.7032 384.199 79.0633 384.216 73.4232C384.227 69.078 384.229 64.7328 384.229 60.3876C384.23 58.3084 384.234 56.2293 384.242 54.1501C384.252 51.24 384.249 48.3301 384.243 45.42C384.248 44.5662 384.254 43.7125 384.26 42.8329C384.228 36.8262 383.968 31.3258 379.937 26.5623C372.926 22.8327 367.14 24.2326 362 29.9998ZM224.187 56.2498C217.093 66.0663 215.846 76.2144 217 87.9998C219.257 98.7801 225.744 107.111 234.574 113.492C244.55 119.693 255.772 120.723 267.152 118.34C278.337 114.716 286.802 106.811 292.32 96.5428C296.371 87.0949 296.6 75.8242 293.437 66.0623C288.861 55.3889 280.611 47.1389 269.937 42.5623C252.521 36.9195 235.794 42.4749 224.187 56.2498ZM457.707 53.7498C456.648 54.0161 456.648 54.0161 455.567 54.2879C453.315 54.8552 451.064 55.4274 448.812 55.9998C447.284 56.3855 445.757 56.771 444.228 57.156C440.485 58.1003 436.742 59.0489 433 59.9998C438.104 66.1811 443.683 71.798 449.375 77.4373C450.302 78.3596 451.229 79.2819 452.184 80.2322C454.453 82.4904 456.726 84.7462 459 86.9998C460.873 83.6422 461.797 80.3117 462.726 76.5896C463.036 75.3528 463.345 74.1159 463.664 72.8416C463.822 72.2008 463.979 71.5601 464.142 70.8999C464.625 68.9388 465.116 66.98 465.609 65.0213C467.347 58.5841 467.347 58.5841 468 51.9998C464.388 51.9998 461.179 52.862 457.707 53.7498ZM401 53.9998C401 71.1598 401 88.3198 401 106C405.144 102.447 409.03 99.0933 412.84 95.2576C414.092 94.0008 414.092 94.0008 415.369 92.7185C416.217 91.8626 417.064 91.0067 417.937 90.1248C418.812 89.2457 419.687 88.3665 420.588 87.4607C422.727 85.3094 424.865 83.1557 427 80.9998C425.416 77.1042 422.752 74.4786 419.809 71.5779C419.303 71.0731 418.798 70.5682 418.277 70.0481C417.213 68.9868 416.146 67.9279 415.077 66.8714C413.434 65.2468 411.8 63.6142 410.166 61.9803C409.131 60.9498 408.095 59.9199 407.059 58.8904C406.567 58.3999 406.075 57.9093 405.569 57.4039C403.618 55.0305 403.618 55.0305 401 53.9998ZM241 136C242.065 143.458 242.193 144.192 247 149C251.455 151.736 255.919 151.643 261 151C265.85 148.664 268.485 145.74 271 141C271 139.35 271 137.7 271 136C261.1 136 251.2 136 241 136ZM437.617 159.25C433.89 162.994 430.333 166.832 426.883 170.832C424.784 173.248 422.646 175.625 420.5 178C417.067 181.803 413.673 185.637 410.312 189.504C409.564 190.356 408.802 191.198 408 192C407.903 193.911 407.878 195.825 407.88 197.739C407.878 198.985 407.877 200.232 407.875 201.516C407.879 202.911 407.883 204.305 407.886 205.699C407.887 207.158 407.886 208.616 407.886 210.074C407.886 214.045 407.892 218.016 407.898 221.987C407.905 226.132 407.905 230.277 407.907 234.423C407.91 242.278 407.918 250.133 407.928 257.988C407.939 266.929 407.945 275.87 407.95 284.81C407.96 303.207 407.978 321.603 408 340C412.074 341.001 416.149 341.998 420.225 342.991C421.612 343.329 422.998 343.668 424.383 344.009C426.376 344.499 428.369 344.984 430.363 345.469C431.562 345.762 432.762 346.055 433.997 346.357C436.977 347.104 436.977 347.104 440 347C440 284.63 440 222.26 440 158C438.813 157.888 438.813 157.888 437.617 159.25ZM389.476 213.39C388.56 214.311 388.56 214.311 387.625 215.25C387.019 215.853 386.413 216.456 385.789 217.078C383.695 219.26 383.695 219.26 381 223C370.605 223.495 370.605 223.495 360 224C360 259.97 360 295.94 360 333C370.631 334.594 381.287 336.107 392 337C392 295.75 392 254.5 392 212C390.779 211.887 390.779 211.887 389.476 213.39ZM312 224C312 258.65 312 293.3 312 329C322.639 330.013 333.312 331 344 331C344 295.69 344 260.38 344 224C333.44 224 322.88 224 312 224ZM178 282C173.403 285.141 168.874 288.562 167.455 294.144C166.738 300.126 167.088 306.123 167.375 312.125C167.425 313.958 167.471 315.791 167.512 317.625C167.621 322.086 167.793 326.542 168 331C175.468 331.13 182.762 330.778 190.187 330C195.045 329.505 195.045 329.505 200 329C200 315.47 200 301.94 200 288C195.71 287.34 191.42 286.68 187 286C183.837 284.735 180.963 283.577 178 282ZM146.923 312.938C146.077 313.787 146.077 313.787 145.215 314.652C144.639 315.227 144.063 315.802 143.47 316.394C142.251 317.612 141.033 318.832 139.816 320.053C137.946 321.929 136.07 323.8 134.193 325.67C133.013 326.851 131.832 328.033 130.652 329.215C130.087 329.778 129.521 330.342 128.938 330.922C126.237 333.101 126.237 333.101 125 336C134.159 335.524 142.967 334.673 152 333C152 325.08 152 317.16 152 309C149.807 309 148.396 311.473 146.923 312.938ZM312 346C312 358.54 312 371.08 312 384C368.1 384 424.2 384 482 384C440.795 351.036 363.617 346 312 346ZM180.875 346.875C179.695 346.953 178.516 347.032 177.301 347.113C176.168 347.197 175.035 347.281 173.867 347.367C172.322 347.477 172.322 347.477 170.746 347.589C168.082 347.988 166.305 348.644 164 350C165.203 350.856 165.203 350.856 166.43 351.73C167.578 352.549 168.727 353.368 169.875 354.187C170.489 354.625 171.103 355.063 171.736 355.513C175.435 358.154 179.122 360.812 182.797 363.488C183.599 364.071 184.401 364.654 185.227 365.255C186.805 366.403 188.382 367.554 189.956 368.708C190.685 369.237 191.413 369.767 192.164 370.312C192.808 370.783 193.452 371.253 194.116 371.738C196.281 373.245 196.281 373.245 200 375C200 365.43 200 355.86 200 346C193.581 346 187.273 346.403 180.875 346.875ZM118.187 354.5C117.416 354.631 116.646 354.763 115.851 354.898C92.8704 358.86 69.4699 363.673 47.9999 373C47.0077 373.431 47.0077 373.431 45.9955 373.87C33.6702 379.227 33.6702 379.227 24.9999 389C24.4249 392.019 24.5328 394.101 25.9648 396.855C44.5981 421.617 94.6477 425.879 122.627 430.407C125.911 430.984 129.141 431.69 132.391 432.433C141.902 434.739 141.902 434.739 151.211 432.957C155.333 430.079 158.529 426.502 161.67 422.607C163.312 420.623 165.135 419.005 167.125 417.375C171.013 414.021 174.785 410.543 178.559 407.062C182.098 403.803 185.697 400.631 189.379 397.535C191.172 395.836 192.571 394.01 194 392C193.554 391.679 193.108 391.359 192.649 391.029C183.898 384.733 175.172 378.405 166.5 372C164.924 370.841 163.349 369.682 161.773 368.523C158.494 366.109 155.232 363.673 151.976 361.226C150.36 360.025 148.742 358.825 147.125 357.625C146.382 357.059 145.639 356.493 144.873 355.91C143.826 355.138 143.826 355.138 142.758 354.351C142.151 353.896 141.544 353.44 140.918 352.971C134.609 349.777 124.933 353.347 118.187 354.5ZM311 400C309.68 402.97 308.36 405.94 307 409C303.506 415.599 298.01 419.355 291.199 422.148C282.86 424.368 272.531 424.341 264.84 420.222C262.006 418.339 259.501 416.309 257 414C253.619 415.488 250.875 417.528 247.976 419.781C240.462 424.414 229.665 424.338 221.238 422.347C213.886 419.358 208.497 413.533 203 408C202.394 408.545 201.788 409.09 201.164 409.652C194.582 415.576 194.582 415.576 188 421.5C187.188 422.232 186.376 422.964 185.539 423.719C183.747 425.328 181.95 426.932 180.148 428.531C179.233 429.346 178.318 430.16 177.375 431C176.537 431.742 175.699 432.485 174.836 433.25C174.23 433.827 173.624 434.405 173 435C173 435.33 173 435.66 173 436C254.778 453.916 362.557 440.717 480 403C480.66 402.01 481.32 401.02 482 400C425.57 400 369.14 400 311 400ZM23.9999 417C23.9123 420.708 23.8593 424.416 23.8124 428.125C23.7873 429.172 23.7621 430.218 23.7362 431.297C23.6727 437.986 24.2142 442.351 28.3749 447.801C53.1494 470.848 110.701 481 144 481C144 470.77 144 460.54 144 450C141.209 449.564 138.418 449.128 135.543 448.679C57.3391 436.364 57.3391 436.364 23.9999 417ZM481.062 420.562C419.293 456.524 328.721 455.444 259.551 455.317C256.649 455.312 253.746 455.312 250.844 455.312C223.989 455.304 197.279 454.884 170.529 452.275C167.029 452.002 163.511 452 160 452C160 462.23 160 472.46 160 483C248.436 494.054 345.006 491.312 480 451C483.776 447.705 486.41 444.768 488 440C488.082 438.227 488.107 436.451 488.098 434.676C488.093 433.134 488.093 433.134 488.088 431.56C488.079 430.488 488.071 429.417 488.062 428.312C488.056 426.687 488.056 426.687 488.049 425.029C488.037 422.353 488.02 419.676 488 417C485.745 417 482.863 419.475 481.062 420.562Z" fill="white"/>
<path d="M142 20.0001C142.852 20.4835 143.704 20.9669 144.582 21.465C164.608 33.9133 177.364 54.4226 183 77.0001C188.505 100.913 182.732 124.447 170.242 144.875C157.051 164.509 137.934 177.47 115 183C99.2999 185.939 82.0909 185.285 67.0002 180C65.9638 179.649 64.9274 179.299 63.8596 178.938C40.512 170.136 23.9859 152.391 13.8415 129.987C5.68676 110.729 4.3852 85.6332 12.0002 66.0001C14.3486 60.4896 17.0456 55.208 20.0002 50.0001C20.4836 49.148 20.967 48.296 21.465 47.4181C33.9134 27.3925 54.4226 14.6365 77.0002 9.00012C99.6869 3.77735 122.22 8.77796 142 20.0001ZM44.7502 45.6876C35.1793 55.7721 29.6675 66.6736 26.0002 80.0001C25.8228 80.621 25.6454 81.2418 25.4626 81.8815C21.6801 99.2121 25.57 117.489 34.4064 132.547C37.0323 136.589 39.8509 140.352 43.0002 144C43.5712 144.667 44.1423 145.333 44.7307 146.02C57.9247 160.283 75.8716 166.821 95.0002 168C113.231 168.37 130.363 160.772 144 149C144.667 148.429 145.333 147.858 146.02 147.27C156.552 137.527 162.255 125.609 166 112C166.178 111.379 166.355 110.758 166.538 110.119C169.57 96.2265 167.471 80.9365 162 68.0001C161.616 67.0617 161.232 66.1232 160.836 65.1564C157.89 58.6638 153.684 53.3339 149 48.0001C148.406 47.3105 147.812 46.6208 147.199 45.9103C133.822 31.4441 116.172 25.7015 97.0002 24.0001C76.6471 24.0001 59.4916 31.8761 44.7502 45.6876Z" fill="white"/>
<path d="M88 40C93.28 40 98.56 40 104 40C104 45.61 104 51.22 104 57C106.475 57.99 106.475 57.99 109 59C114.485 62.8072 118.155 66.5436 120 73C120 75.31 120 77.62 120 80C114.39 80 108.78 80 103 80C102.34 78.35 101.68 76.7 101 75C96.9988 72.6464 92.5407 72.4618 88 72C88.2559 73.7731 88.5303 75.5434 88.8125 77.3125C88.9634 78.2986 89.1142 79.2848 89.2696 80.3008C90.07 83.2585 90.4836 84.2936 93 86C95.9818 86.8692 95.9818 86.8692 99.3125 87.4375C107.764 89.2645 113.1 92.9008 118 100C120.067 104.183 120.234 107.632 120.195 112.27C120.193 112.951 120.19 113.632 120.187 114.333C120.176 116.493 120.151 118.653 120.125 120.812C120.115 122.283 120.106 123.754 120.098 125.225C120.077 128.817 120.038 132.408 120 136C114.72 136 109.44 136 104 136C104 141.28 104 146.56 104 152C98.72 152 93.44 152 88 152C88 146.39 88 140.78 88 135C86.35 134.34 84.7 133.68 83 133C77.5153 129.193 73.8447 125.456 72 119C72 116.69 72 114.38 72 112C77.61 112 83.22 112 89 112C89.66 113.65 90.32 115.3 91 117C95.0012 119.354 99.4594 119.538 104 120C103.744 118.227 103.47 116.457 103.188 114.688C103.037 113.701 102.886 112.715 102.731 111.699C101.93 108.741 101.516 107.706 99 106C96.0183 105.131 96.0183 105.131 92.6875 104.562C84.2365 102.736 78.9001 99.0992 74 92C71.9329 87.8166 71.7666 84.3681 71.8047 79.7305C71.8076 79.0495 71.8104 78.3685 71.8133 77.6668C71.8244 75.5069 71.8495 73.3473 71.875 71.1875C71.8851 69.7168 71.8942 68.2461 71.9024 66.7754C71.9226 63.1833 71.9618 59.5921 72 56C77.28 56 82.56 56 88 56C88 50.72 88 45.44 88 40Z" fill="white"/>
<path d="M136 88C141.28 88 146.56 88 152 88C152 93.28 152 98.56 152 104C146.72 104 141.44 104 136 104C136 98.72 136 93.44 136 88Z" fill="white"/>
<path d="M40 88C45.28 88 50.56 88 56 88C56 93.28 56 98.56 56 104C50.72 104 45.44 104 40 104C40 98.72 40 93.44 40 88Z" fill="white"/>
</svg>
