<svg width="512" height="512" viewBox="0 0 512 512" fill="none" xmlns="http://www.w3.org/2000/svg">
<path d="M99.0003 19C99.6577 19.4731 100.315 19.9462 100.992 20.4336C111.064 28.3343 118.023 41.4559 120 54C121.225 68.5082 120.076 81.7163 111.758 94.0976C110.761 95.9823 110.761 95.9823 111.679 97.8302C113.292 100.48 115.181 102.426 117.379 104.619C118.299 105.542 119.219 106.464 120.166 107.415C121.189 108.43 122.211 109.445 123.233 110.46C124.308 111.534 125.382 112.608 126.456 113.683C129.37 116.599 132.291 119.508 135.213 122.416C138.267 125.457 141.314 128.503 144.362 131.549C150.134 137.315 155.912 143.076 161.691 148.835C168.27 155.392 174.844 161.955 181.418 168.518C194.939 182.018 208.467 195.511 222 209C226.45 207.239 230.761 205.263 235.086 203.219C248.88 197.45 265.063 198.372 278.907 203.516C282.207 205.099 285.013 206.895 288 209C291.586 207.478 293.88 205.367 296.619 202.621C297.542 201.702 298.465 200.782 299.415 199.834C300.43 198.812 301.445 197.789 302.46 196.767C303.534 195.692 304.609 194.618 305.684 193.545C308.599 190.63 311.508 187.709 314.416 184.787C317.457 181.734 320.503 178.686 323.549 175.638C329.315 169.866 335.076 164.088 340.835 158.309C347.392 151.73 353.955 145.156 360.518 138.583C374.019 125.061 387.512 111.533 401 98C399.608 94.481 398.11 91.0504 396.5 87.625C389.753 72.7219 389.714 57.7431 395.125 42.3125C401.762 26.36 413.382 16.5819 429 9.99998C443.585 5.14403 459.101 6.23235 473.047 12.457C486.987 19.7404 496.902 31.0189 502.375 45.75C506.419 60.1859 505.572 76.4952 499 90C496.899 93.555 494.602 96.7983 492 100C491.374 100.833 490.747 101.665 490.102 102.523C481.258 112.945 468.963 117.407 456 120C456 209.76 456 299.52 456 392C459.3 392.66 462.6 393.32 466 394C481.385 399.901 493.155 409.965 500.395 424.871C506.393 440.35 506.41 456.626 500 472C497.941 475.895 495.607 479.452 493 483C492.5 483.708 492 484.415 491.485 485.145C482.858 496.189 469.493 502.162 456.012 504.523C440.747 506.343 425.497 502.586 413.188 493.375C400.825 483.608 395.039 471.191 392 456C302.24 456 212.48 456 120 456C119.34 459.3 118.68 462.6 118 466C116.852 468.835 115.717 471.434 114.313 474.125C113.779 475.161 113.779 475.161 113.234 476.218C106.231 489.41 94.5711 497.997 80.4261 502.582C74.9649 504.182 69.8543 504.5 64.1878 504.437C63.2258 504.43 62.2639 504.422 61.2727 504.415C46.4369 504.072 34.1206 498.582 23.2347 488.449C12.3506 476.519 6.84451 462.201 7.00029 446C8.10045 429.655 14.5004 415.485 26.7073 404.582C41.219 393.517 56.1487 390.588 74.0003 392C81.3958 393.133 87.9196 396.092 94.0979 400.242C95.9826 401.239 95.9826 401.239 97.8305 400.321C100.48 398.708 102.427 396.819 104.619 394.621C106.003 393.242 106.003 393.242 107.415 391.834C108.43 390.812 109.445 389.789 110.46 388.767C111.534 387.692 112.609 386.618 113.684 385.545C116.599 382.63 119.508 379.709 122.416 376.787C125.457 373.734 128.503 370.686 131.549 367.638C137.315 361.866 143.076 356.088 148.835 350.309C155.392 343.73 161.955 337.156 168.518 330.583C182.019 317.061 195.512 303.533 209 290C207.239 285.551 205.263 281.24 203.219 276.914C198.037 264.523 197.764 248.005 202.77 235.48C204.408 232.179 206.206 229.01 208.242 225.937C209.239 224.022 209.239 224.022 208.321 222.168C206.708 219.52 204.819 217.573 202.622 215.381C201.702 214.458 200.782 213.536 199.834 212.585C198.812 211.57 197.79 210.555 196.767 209.54C195.693 208.466 194.619 207.392 193.545 206.317C190.63 203.401 187.709 200.492 184.787 197.584C181.734 194.543 178.687 191.497 175.638 188.451C169.866 182.685 164.089 176.924 158.31 171.165C151.73 164.608 145.156 158.045 138.583 151.482C125.062 137.982 111.533 124.489 98.0003 111C93.5756 112.749 89.3026 114.727 85.012 116.781C72.3477 121.906 56.689 121.93 43.8948 117.266C28.7539 110.645 17.4993 101.246 11.0628 85.5625C5.78451 70.2391 5.79059 55.0646 12.0003 40C14.058 36.1041 16.3935 32.5482 19.0003 29C19.5004 28.2923 20.0006 27.5846 20.5159 26.8554C28.4745 16.6661 40.636 10.7681 53.0003 7.99998C53.6925 7.83885 54.3847 7.67772 55.0979 7.5117C70.8048 4.74382 86.4285 9.80357 99.0003 19ZM412.005 111.749C411.181 112.575 410.357 113.401 409.508 114.252C408.819 114.938 408.819 114.938 408.117 115.638C406.57 117.181 405.031 118.731 403.492 120.281C402.389 121.385 401.285 122.489 400.181 123.592C397.177 126.595 394.178 129.605 391.181 132.616C388.051 135.759 384.916 138.896 381.78 142.033C375.841 147.979 369.906 153.93 363.973 159.883C357.22 166.658 350.462 173.428 343.703 180.197C329.796 194.125 315.896 208.06 302 222C303.04 224.616 304.094 227.216 305.219 229.797C311.616 244.542 313.634 259.494 308 275C301.655 290.003 293.162 300.188 277.938 306.812C264.327 312.063 249.919 313.11 236 308C232.801 306.429 229.682 304.792 226.594 303.012C224.13 301.725 224.13 301.725 222.129 302.661C219.509 304.309 217.531 306.224 215.343 308.417C214.412 309.345 213.481 310.273 212.522 311.23C211.497 312.261 210.473 313.293 209.449 314.325C208.365 315.409 207.28 316.493 206.196 317.577C203.253 320.518 200.317 323.466 197.383 326.415C194.314 329.496 191.239 332.572 188.166 335.648C182.346 341.473 176.532 347.304 170.72 353.136C164.103 359.776 157.479 366.41 150.856 373.044C137.231 386.69 123.613 400.342 110 414C111.724 418.357 113.663 422.567 115.684 426.793C117.443 431.078 118.669 435.564 120 440C209.76 440 299.52 440 392 440C393.65 435.05 395.3 430.1 397 425C404.023 409.617 414.704 401.194 430 395C433.3 394.01 436.6 393.02 440 392C440 302.24 440 212.48 440 120C432.575 117.525 432.575 117.525 425 115C419.688 112.187 419.688 112.187 417.637 110.918C414.959 109.416 414.323 109.717 412.005 111.749Z" fill="white"/>
</svg>
